<svg xmlns="http://www.w3.org/2000/svg" xmlns:xlink="http://www.w3.org/1999/xlink" width="20" height="20" viewBox="0 0 20 20">
  <defs>
    <clipPath id="clip-emptyCart">
      <rect width="20" height="20"/>
    </clipPath>
  </defs>
  <g id="emptyCart" clip-path="url(#clip-emptyCart)">
    <path id="Exclusion_8" data-name="Exclusion 8" d="M-247-810a10.012,10.012,0,0,1-10-10,10.012,10.012,0,0,1,10-10,10.011,10.011,0,0,1,10,10A10.011,10.011,0,0,1-247-810Zm3.559-5.462a.961.961,0,0,0-.96.959.961.961,0,0,0,.96.96.961.961,0,0,0,.959-.96A.96.96,0,0,0-243.441-815.462Zm-3.84,0a.96.96,0,0,0-.959.959.961.961,0,0,0,.959.96.961.961,0,0,0,.96-.96A.961.961,0,0,0-247.281-815.462Zm-1.565-.5h0a.477.477,0,0,0,.126.016H-242a.48.48,0,0,0,.48-.48.481.481,0,0,0-.48-.481h-6.5l-.2-.752,6.529-.7a.85.85,0,0,0,.4-.24,1.76,1.76,0,0,0,.28-.513l1.092-3.461s.14-.409,0-.588a.6.6,0,0,0-.441-.138,1.227,1.227,0,0,0-.123.006h-9.243l-.349-1.306a.477.477,0,0,0-.286-.321.478.478,0,0,0-.267-.082h-2.4a.48.48,0,0,0-.48.48.48.48,0,0,0,.48.48h2.109l2.071,7.727a.479.479,0,0,0,.463.357h.031Z" transform="translate(257 830)" fill="#f0f1f3"/>
  </g>
</svg>
