<svg xmlns="http://www.w3.org/2000/svg" xmlns:xlink="http://www.w3.org/1999/xlink" width="20" height="20" viewBox="0 0 20 20"><defs><clipPath id="b"><rect width="20" height="20"/></clipPath></defs><g id="a" clip-path="url(#b)"><g transform="translate(0 0)"><path d="M7.319,20h0L5.5,17.794,2.68,17.32,2.206,14.5,0,12.68,1,10,0,7.32,2.206,5.5,2.68,2.68,5.5,2.206,7.32,0,10,1l2.68-1L14.5,2.206l2.82.474.474,2.82L20,7.32,19,10l1,2.68L17.794,14.5l-.474,2.82-2.82.474L12.68,20,10,19,7.32,20ZM4.638,10.233,3.75,11.976l5,2.834L16.2,7.762,14.935,6.25,8.356,12.41Z" transform="translate(0 0)" fill="#648e00"/></g></g></svg>