<svg xmlns="http://www.w3.org/2000/svg" xmlns:xlink="http://www.w3.org/1999/xlink" width="20" height="20" viewBox="0 0 20 20"><defs><clipPath id="b"><rect width="20" height="20"/></clipPath></defs><g id="a" clip-path="url(#b)"><g transform="translate(0.096 -2.467)"><path d="M10.346,0c1.349,0,.326,8.356,2.7,9.437s5.807-6.611,6.793-5.111-2.849,11.111-2.849,11.111L4.28,15.476S-.747,6.326.1,4.817s4.99,5.825,7.552,4.621S9,0,10.346,0Z" transform="translate(-0.096 2)" fill="#f28500"/><path d="M-.018,0h12.71s3.177,1.986,0,2.648a40.919,40.919,0,0,1-12.71,0C-3.2,1.986-.018,0-.018,0Z" transform="translate(4.254 19.323)" fill="#f28500"/></g></g></svg>