<svg xmlns="http://www.w3.org/2000/svg" xmlns:xlink="http://www.w3.org/1999/xlink" width="100" height="100" viewBox="0 0 100 100">
  <defs>
    <clipPath id="clip-Smiling-Face-with-Horns">
      <rect width="100" height="100"/>
    </clipPath>
  </defs>
  <g id="Smiling-Face-with-Horns" clip-path="url(#clip-Smiling-Face-with-Horns)">
    <g id="Group_244" data-name="Group 244">
      <path id="Union_9" data-name="Union 9" d="M-1525-590a49.769,49.769,0,0,1,8.2-27.443c-10.763-17.289-5.233-22.556-5.233-22.556s7.057,5.931,21.343,7.1A49.766,49.766,0,0,1-1475-640a49.773,49.773,0,0,1,26.43,7.548c14.158-1.2,21.149-7.081,21.149-7.081s5.571,5.306-5.352,22.747A49.761,49.761,0,0,1-1425-590a50,50,0,0,1-50,50A50,50,0,0,1-1525-590Zm7.5,0a42.548,42.548,0,0,0,42.5,42.5,42.548,42.548,0,0,0,42.5-42.5,42.548,42.548,0,0,0-42.5-42.5A42.548,42.548,0,0,0-1517.5-590Z" transform="translate(1525 640)"/>
      <g id="Group_241" data-name="Group 241">
        <path id="Path_21" data-name="Path 21" d="M1.355,57.144c7.747-4.088,16.84-2.9,24.132,0S22.861,47.057,13.215,46.856-6.393,61.233,1.355,57.144Z" transform="translate(36.417 26.291)"/>
        <g id="Group_240" data-name="Group 240" transform="translate(-0.38)">
          <path id="Union_7" data-name="Union 7" d="M-1142.3-619.7a12.677,12.677,0,0,1,.863-4.683,2.489,2.489,0,0,1-1.222-.5,2.5,2.5,0,0,1-.467-3.5,25,25,0,0,1,19.646-8.726,2.711,2.711,0,0,1,.355.031,2.5,2.5,0,0,1,2.105,2.509,2.5,2.5,0,0,1-2.539,2.46,20.416,20.416,0,0,0-11.685,3.343c2.971.65,5.252,4.463,5.252,9.068,0,5.063-2.756,9.166-6.154,9.166S-1142.3-614.633-1142.3-619.7Z" transform="translate(1199.625 678.11)"/>
          <path id="Union_8" data-name="Union 8" d="M1.34,9.166A12.677,12.677,0,0,0,2.2,13.848a2.5,2.5,0,0,0-1.689,4A25,25,0,0,0,20.16,26.576a2.711,2.711,0,0,0,.355-.031,2.5,2.5,0,0,0-.434-4.969A20.416,20.416,0,0,1,8.4,18.233c2.971-.65,5.252-4.463,5.252-9.068C13.649,4.1,10.893,0,7.495,0S1.34,4.1,1.34,9.166Z" transform="translate(44 67.58) rotate(180)"/>
        </g>
      </g>
    </g>
  </g>
</svg>
