<svg xmlns="http://www.w3.org/2000/svg" xmlns:xlink="http://www.w3.org/1999/xlink" width="100" height="100" viewBox="0 0 100 100">
  <defs>
    <clipPath id="clip-Anguished-Face">
      <rect width="100" height="100"/>
    </clipPath>
  </defs>
  <g id="Anguished-Face" clip-path="url(#clip-Anguished-Face)">
    <g id="Group_208" data-name="Group 208">
      <path id="Path_4" data-name="Path 4" d="M50,7.5A42.5,42.5,0,1,0,92.5,50,42.548,42.548,0,0,0,50,7.5M50,0A50,50,0,1,1,0,50,50,50,0,0,1,50,0Z"/>
      <path id="Path_79" data-name="Path 79" d="M1687.456,576.845c2,2.625,8.214,0,15.833,0s12.849,2.878,14.646,0c3.436-5.5-7.026-13.87-14.646-13.87S1683.272,571.342,1687.456,576.845Z" transform="translate(-1652.615 -495.411)"/>
      <g id="Group_207" data-name="Group 207">
        <g id="Group_89" data-name="Group 89" transform="translate(24 40.995)">
          <g id="Group_36" data-name="Group 36" transform="translate(0 0)">
            <ellipse id="Ellipse_4" data-name="Ellipse 4" cx="6.154" cy="8.002" rx="6.154" ry="8.002"/>
            <ellipse id="Ellipse_5" data-name="Ellipse 5" cx="6.154" cy="8.002" rx="6.154" ry="8.002" transform="translate(38.382)"/>
          </g>
        </g>
        <g id="Group_206" data-name="Group 206" transform="translate(-0.675)">
          <path id="Path_5" data-name="Path 5" d="M2.5,0A2.5,2.5,0,0,0,.3,3.69a24.75,24.75,0,0,0,17.86,11.577,2.5,2.5,0,0,0,.7-4.95A19.815,19.815,0,0,1,4.7,1.311,2.5,2.5,0,0,0,2.5,0Z" transform="translate(85.823 34.104) rotate(171)"/>
          <path id="Path_5-2" data-name="Path 5" d="M2.5,15.292A2.5,2.5,0,0,1,.3,11.6,24.75,24.75,0,0,1,18.162.025a2.5,2.5,0,0,1,.7,4.95A19.815,19.815,0,0,0,4.7,13.981,2.5,2.5,0,0,1,2.5,15.292Z" transform="translate(17.067 19) rotate(9)"/>
        </g>
      </g>
    </g>
  </g>
</svg>
