<svg xmlns="http://www.w3.org/2000/svg" xmlns:xlink="http://www.w3.org/1999/xlink" width="100" height="100" viewBox="0 0 100 100">
  <defs>
    <clipPath id="clip-Astonished-Face">
      <rect width="100" height="100"/>
    </clipPath>
  </defs>
  <g id="Astonished-Face" clip-path="url(#clip-Astonished-Face)">
    <g id="Group_210" data-name="Group 210">
      <path id="Path_4" data-name="Path 4" d="M50,7.5A42.5,42.5,0,1,0,92.5,50,42.548,42.548,0,0,0,50,7.5M50,0A50,50,0,1,1,0,50,50,50,0,0,1,50,0Z"/>
      <g id="Group_209" data-name="Group 209">
        <g id="Group_134" data-name="Group 134">
          <g id="Group_133" data-name="Group 133">
            <g id="Group_89" data-name="Group 89" transform="translate(-2.183 -2.332)">
              <g id="Group_36" data-name="Group 36" transform="translate(29.183 34)">
                <ellipse id="Ellipse_4" data-name="Ellipse 4" cx="6.154" cy="9.166" rx="6.154" ry="9.166"/>
                <ellipse id="Ellipse_5" data-name="Ellipse 5" cx="6.154" cy="9.166" rx="6.154" ry="9.166" transform="translate(34.327)"/>
              </g>
            </g>
          </g>
        </g>
        <g id="Group_4" data-name="Group 4" transform="translate(40 58.457)">
          <path id="Ellipse_1" data-name="Ellipse 1" d="M10.656,4.893c-2.726,0-5.763,3.825-5.763,9.315s3.037,9.315,5.763,9.315,5.763-3.825,5.763-9.315-3.037-9.315-5.763-9.315m0-4.893C16.54,0,21.311,6.361,21.311,14.207S16.54,28.415,10.656,28.415,0,22.054,0,14.207,4.771,0,10.656,0Z" transform="translate(0 0)"/>
          <path id="Path_13" data-name="Path 13" d="M10.656,0C16.54,0,21.311,6.361,21.311,14.207c0,1.907-.933.266-4.243,1.282H4.341C2.41,15,0,15.677,0,14.207,0,10.035,4.771,0,10.656,0Z" transform="translate(21.311 28.415) rotate(180)"/>
        </g>
      </g>
    </g>
  </g>
</svg>
