<svg xmlns="http://www.w3.org/2000/svg" xmlns:xlink="http://www.w3.org/1999/xlink" width="100" height="100" viewBox="0 0 100 100">
  <defs>
    <clipPath id="clip-Confused-Face">
      <rect width="100" height="100"/>
    </clipPath>
  </defs>
  <g id="Confused-Face" clip-path="url(#clip-Confused-Face)">
    <g id="Group_217" data-name="Group 217">
      <path id="Path_4" data-name="Path 4" d="M50,7.5A42.5,42.5,0,1,0,92.5,50,42.548,42.548,0,0,0,50,7.5M50,0A50,50,0,1,1,0,50,50,50,0,0,1,50,0Z"/>
      <g id="Group_216" data-name="Group 216">
        <g id="Group_209" data-name="Group 209" transform="translate(-1 -1)">
          <g id="Group_134" data-name="Group 134" transform="translate(27 31.668)">
            <g id="Group_133" data-name="Group 133">
              <g id="Group_89" data-name="Group 89">
                <g id="Group_36" data-name="Group 36">
                  <ellipse id="Ellipse_4" data-name="Ellipse 4" cx="6.154" cy="7.564" rx="6.154" ry="7.564" transform="translate(1)"/>
                  <ellipse id="Ellipse_5" data-name="Ellipse 5" cx="6.154" cy="7.564" rx="6.154" ry="7.564" transform="translate(33.327)"/>
                </g>
              </g>
            </g>
          </g>
        </g>
        <path id="Path_29" data-name="Path 29" d="M2.229,56.718c12.032-7.709,26.335-2.3,37.661,3.166s-4.3-9.632-18.653-11.093C15.5,48.477,9.522,49.31,4.894,51.8-2.176,55.614-5.315,61.552,2.229,56.718Z" transform="translate(16.816 16.935) rotate(-13)"/>
      </g>
    </g>
  </g>
</svg>
