<svg xmlns="http://www.w3.org/2000/svg" xmlns:xlink="http://www.w3.org/1999/xlink" width="100" height="100" viewBox="0 0 100 100">
  <defs>
    <clipPath id="clip-Disappointed-Face">
      <rect width="100" height="100"/>
    </clipPath>
  </defs>
  <g id="Disappointed-Face" clip-path="url(#clip-Disappointed-Face)">
    <g id="Group_19" data-name="Group 19">
      <g id="Group_18" data-name="Group 18">
        <g id="Group_17" data-name="Group 17" transform="translate(17 40.498)">
          <path id="Path_19" data-name="Path 19" d="M2.5,15.407a2.5,2.5,0,0,1-2.2-3.69A25,25,0,0,1,18.34.025a2.5,2.5,0,1,1,.7,4.95A20.065,20.065,0,0,0,4.7,14.1,2.5,2.5,0,0,1,2.5,15.407Z" transform="matrix(-0.602, -0.799, 0.799, -0.602, 52.754, 26.197)"/>
          <path id="Path_20" data-name="Path 20" d="M18.7,15.407a2.522,2.522,0,0,1-.355-.025A25,25,0,0,1,.3,3.69,2.5,2.5,0,0,1,4.694,1.3h0a19.955,19.955,0,0,0,14.35,9.131,2.5,2.5,0,0,1-.349,4.975Z" transform="matrix(0.602, -0.799, 0.799, 0.602, 0, 16.925)"/>
        </g>
        <path id="Path_21" data-name="Path 21" d="M1.355,57.144c7.747-4.088,16.84-2.9,24.132,0S22.861,47.057,13.215,46.856-6.393,61.233,1.355,57.144Z" transform="translate(36.417 23.291)"/>
        <path id="Path_4" data-name="Path 4" d="M50,7.5A42.5,42.5,0,1,0,92.5,50,42.548,42.548,0,0,0,50,7.5M50,0A50,50,0,1,1,0,50,50,50,0,0,1,50,0Z"/>
      </g>
    </g>
  </g>
</svg>
