<svg xmlns="http://www.w3.org/2000/svg" xmlns:xlink="http://www.w3.org/1999/xlink" width="100" height="100" viewBox="0 0 100 100">
  <defs>
    <clipPath id="clip-Drooling-Face">
      <rect width="100" height="100"/>
    </clipPath>
  </defs>
  <g id="Drooling-Face" clip-path="url(#clip-Drooling-Face)">
    <g id="Group_179" data-name="Group 179">
      <path id="Path_4" data-name="Path 4" d="M50,7.5A42.5,42.5,0,1,0,92.5,50,42.548,42.548,0,0,0,50,7.5M50,0A50,50,0,1,1,0,50,50,50,0,0,1,50,0Z"/>
      <g id="Group_178" data-name="Group 178">
        <path id="Union_4" data-name="Union 4" d="M-727.815-314.632c-.5-1.555.793-4.64.744-6.607-.084-3.329.427-4.113-.744-5.736a2.846,2.846,0,0,0-3.941-.757c-.986.635,0,1.671,0,3.295a16.034,16.034,0,0,1,0,3.2c-.774,1.9-3.844,2.214-4.157.41s1.333-3.608,1.333-3.608a3.533,3.533,0,0,0-.772-4.14,8.156,8.156,0,0,0-1.758-1.159q-1.183.123-2.369.142c-6.852.1-13.8-3.052-18.353-6.2-5.747-3.98-7.663-7.961-.712-5.389,12.453,4.606,27.068,3.268,38.791,0,6.011-1.676,4.747,1.356,0,4.739a17.592,17.592,0,0,0-2.727,4.749c-1.708,4.764-1.68,5.861-1.429,10.316.2,3.49,2.507,5.952,2.039,7.455-.524,1.683-1.535,2.441-2.6,2.44C-725.78-311.486-727.169-312.639-727.815-314.632Z" transform="translate(789 411.089)"/>
        <g id="Group_177" data-name="Group 177">
          <g id="Group_161" data-name="Group 161" transform="translate(0.036)">
            <path id="Path_19" data-name="Path 19" d="M2.5,15.407a2.5,2.5,0,0,1-2.2-3.69A25,25,0,0,1,18.34.025a2.5,2.5,0,0,1,.7,4.95A20.065,20.065,0,0,0,4.7,14.1,2.5,2.5,0,0,1,2.5,15.407Z" transform="translate(16.108 22) rotate(8)"/>
            <path id="Path_19-2" data-name="Path 19" d="M2.5,0A2.5,2.5,0,0,0,.3,3.69,25,25,0,0,0,18.34,15.382a2.5,2.5,0,0,0,.7-4.95A20.065,20.065,0,0,1,4.7,1.311,2.5,2.5,0,0,0,2.5,0Z" transform="translate(85.763 34.257) rotate(172)"/>
          </g>
          <g id="Group_176" data-name="Group 176" transform="translate(-0.864)">
            <path id="Path_69" data-name="Path 69" d="M802.3,458.551c-1.574-2.885-4.089-3.608-8.659-4.811s-9.621-1.924-9.621,0,5.643,4.813,9.621,7.7,4.129,4.563,6.294,3.842A4.772,4.772,0,0,0,802.3,458.551Z" transform="translate(-830.769 358.162) rotate(-50)"/>
            <path id="Path_70" data-name="Path 70" d="M18.281,6.9C16.707,9.78,14.192,10.5,9.621,11.706S0,13.63,0,11.706s5.643-4.813,9.622-7.7S13.751-.555,15.916.167A4.772,4.772,0,0,1,18.281,6.9Z" transform="translate(72 56.752) rotate(-130)"/>
          </g>
        </g>
      </g>
    </g>
  </g>
</svg>
