<svg xmlns="http://www.w3.org/2000/svg" xmlns:xlink="http://www.w3.org/1999/xlink" width="100" height="100" viewBox="0 0 100 100">
  <defs>
    <clipPath id="clip-Face-with-Raised-Eyebrow">
      <rect width="100" height="100"/>
    </clipPath>
  </defs>
  <g id="Face-with-Raised-Eyebrow" clip-path="url(#clip-Face-with-Raised-Eyebrow)">
    <g id="Group_148" data-name="Group 148">
      <path id="Path_4" data-name="Path 4" d="M50,7.5A42.5,42.5,0,1,0,92.5,50,42.548,42.548,0,0,0,50,7.5M50,0A50,50,0,1,1,0,50,50,50,0,0,1,50,0Z"/>
      <g id="Group_147" data-name="Group 147">
        <g id="Group_146" data-name="Group 146">
          <g id="Group_145" data-name="Group 145" transform="translate(-0.384)">
            <ellipse id="Ellipse_5" data-name="Ellipse 5" cx="6.154" cy="9.166" rx="6.154" ry="9.166" transform="translate(60.029 33.668)"/>
            <ellipse id="Ellipse_4" data-name="Ellipse 4" cx="6.154" cy="6.502" rx="6.154" ry="6.502" transform="translate(27.384 36.995)"/>
          </g>
          <path id="Path_28" data-name="Path 28" d="M-4.966,92.32H-44.134a3,3,0,0,1-3-3,3,3,0,0,1,3-3H-4.966a3,3,0,0,1,3,3A3,3,0,0,1-4.966,92.32Z" transform="translate(74.134 -24.377)"/>
        </g>
        <g id="Group_144" data-name="Group 144">
          <path id="Path_58" data-name="Path 58" d="M1187.91,281.25a2,2,0,0,1-.544-.076,17.412,17.412,0,0,1-4.6-2.281c-1.822-1.148-3.395-2.14-5.63-2.264-3.569-.2-6.3,2.858-6.322,2.889a2,2,0,1,1-3.035-2.605c.155-.181,3.748-4.293,9.017-4.293.185,0,.372.005.562.016a15.054,15.054,0,0,1,7.541,2.874,14.18,14.18,0,0,0,3.552,1.815,2,2,0,0,1-.542,3.925Z" transform="translate(-1145.298 -245)"/>
          <path id="Path_59" data-name="Path 59" d="M1201.019,223.842a2,2,0,0,1-1.045-3.707c.7-.43,1.571-1.095,2.489-1.8,2.344-1.8,5.26-4.033,8.561-4.844a8.7,8.7,0,0,1,7.1,1.671,14.606,14.606,0,0,1,2.771,2.512l-3.1,2.528,0,.005a10.952,10.952,0,0,0-2.033-1.812,4.762,4.762,0,0,0-3.785-1.02c-2.486.611-4.927,2.482-7.081,4.134a34.867,34.867,0,0,1-2.837,2.038A1.991,1.991,0,0,1,1201.019,223.842Z" transform="translate(-1144.298 -198)"/>
        </g>
      </g>
    </g>
  </g>
</svg>
