<svg xmlns="http://www.w3.org/2000/svg" xmlns:xlink="http://www.w3.org/1999/xlink" width="100" height="100" viewBox="0 0 100 100">
  <defs>
    <clipPath id="clip-Face-Holding-Back-Tears">
      <rect width="100" height="100"/>
    </clipPath>
  </defs>
  <g id="Face-Holding-Back-Tears" clip-path="url(#clip-Face-Holding-Back-Tears)">
    <path id="Path_60" data-name="Path 60" d="M16.4,0A16.4,16.4,0,1,1,0,16.4,16.4,16.4,0,0,1,16.4,0Z" transform="translate(15 35.501)" fill="none"/>
    <path id="Path_61" data-name="Path 61" d="M16.4,0A16.4,16.4,0,1,1,0,16.4,16.4,16.4,0,0,1,16.4,0Z" transform="translate(54 35.501)" fill="none"/>
    <g id="Group_202" data-name="Group 202">
      <path id="Path_4" data-name="Path 4" d="M50,7.5A42.5,42.5,0,1,0,92.5,50,42.548,42.548,0,0,0,50,7.5M50,0A50,50,0,1,1,0,50,50,50,0,0,1,50,0Z"/>
      <g id="Group_201" data-name="Group 201">
        <g id="Group_198" data-name="Group 198" transform="translate(-4.172 1)">
          <path id="Path_20" data-name="Path 20" d="M18.7,15.407a2.522,2.522,0,0,1-.355-.025A25,25,0,0,1,.3,3.69,2.5,2.5,0,0,1,4.694,1.3h0a19.955,19.955,0,0,0,14.35,9.131,2.5,2.5,0,0,1-.349,4.975Z" transform="translate(17.172 33.038) rotate(-71)"/>
          <path id="Path_20-2" data-name="Path 20" d="M18.7,0a2.522,2.522,0,0,0-.355.025A25,25,0,0,0,.3,11.717a2.5,2.5,0,0,0,4.392,2.389h0a19.955,19.955,0,0,1,14.35-9.131A2.5,2.5,0,0,0,18.7,0Z" transform="translate(75.951 38.054) rotate(-109)"/>
        </g>
        <path id="Path_29" data-name="Path 29" d="M1.706,47.669c8.729,4.606,18.973,3.268,27.19,0S25.938,59.034,15.069,59.261-7.023,43.063,1.706,47.669Z" transform="translate(34.417 25.235)"/>
        <g id="Group_200" data-name="Group 200">
          <g id="Group_199" data-name="Group 199" transform="translate(-1)">
            <path id="Exclusion_1" data-name="Exclusion 1" d="M-1383.25-461.5a14.653,14.653,0,0,1-10.429-4.32A14.653,14.653,0,0,1-1398-476.25a14.654,14.654,0,0,1,4.32-10.43A14.653,14.653,0,0,1-1383.25-491a14.653,14.653,0,0,1,10.43,4.32,14.653,14.653,0,0,1,4.32,10.43,14.652,14.652,0,0,1-4.32,10.429A14.654,14.654,0,0,1-1383.25-461.5Zm5.98-13.672c-1.192,0-2.664,1.117-3.663,2.78a6.674,6.674,0,0,0-1.011,3.1,2.154,2.154,0,0,0,.836,2.04,1.526,1.526,0,0,0,.8.21c1.192,0,2.664-1.117,3.663-2.78,1.278-2.126,1.357-4.434.176-5.144A1.527,1.527,0,0,0-1377.27-475.173Zm-6.486-12.927a12.272,12.272,0,0,0-6.508,2.123c-4.265,2.77-6.313,7.214-4.566,9.905a4.984,4.984,0,0,0,4.4,1.981,12.276,12.276,0,0,0,6.509-2.123,12.365,12.365,0,0,0,4.541-4.982,5.022,5.022,0,0,0,.024-4.923A4.983,4.983,0,0,0-1383.756-488.1Z" transform="translate(1415 525.501)"/>
            <path id="Exclusion_2" data-name="Exclusion 2" d="M14.749,0A14.75,14.75,0,0,0,4.32,25.179,14.75,14.75,0,1,0,25.179,4.32,14.654,14.654,0,0,0,14.749,0Zm5.98,13.672c-1.192,0-2.664-1.117-3.663-2.78a6.674,6.674,0,0,1-1.011-3.1,2.154,2.154,0,0,1,.836-2.04,1.526,1.526,0,0,1,.8-.21c1.192,0,2.664,1.117,3.663,2.78,1.278,2.126,1.357,4.434.176,5.144A1.527,1.527,0,0,1,20.729,13.672ZM14.244,26.6a12.272,12.272,0,0,1-6.508-2.123C3.47,21.705,1.422,17.262,3.17,14.57a4.984,4.984,0,0,1,4.4-1.981,12.276,12.276,0,0,1,6.509,2.123,12.365,12.365,0,0,1,4.541,4.982,5.022,5.022,0,0,1,.024,4.923A4.983,4.983,0,0,1,14.244,26.6Z" transform="translate(83.499 64) rotate(180)"/>
          </g>
          <path id="Path_77" data-name="Path 77" d="M1552.162,551.259c.806,0,1.731.04,2.827.121a39.481,39.481,0,0,1,5.808.807c1.535.368,3.575,1.042,3.575,2.636,0,1.486-1.947,2.6-3.108,3.129a14.17,14.17,0,0,1-5.673,1.281c-.255,0-.508-.009-.751-.027a10.116,10.116,0,0,1-5.3-2.017c-1.454-1.1-2.322-2.411-2.322-3.495a2.167,2.167,0,0,1,1.779-2.073A10.63,10.63,0,0,1,1552.162,551.259Zm10.15,3.619a6.551,6.551,0,0,0-2.475-.857,40.647,40.647,0,0,0-5-.646c-1.046-.078-1.922-.116-2.678-.116-2.313,0-2.847.367-2.941.454a3.716,3.716,0,0,0,1.531,1.883,8.118,8.118,0,0,0,4.238,1.616c.194.015.4.022.6.022a12.166,12.166,0,0,0,4.585-.987A5.563,5.563,0,0,0,1562.312,554.878Z" transform="translate(-1526 -492)"/>
          <path id="Path_78" data-name="Path 78" d="M1552.161,551.259c.806,0,1.731.04,2.827.121a39.466,39.466,0,0,1,5.807.807c1.534.368,3.574,1.042,3.574,2.636,0,1.486-1.947,2.6-3.107,3.129a14.165,14.165,0,0,1-5.672,1.281c-.255,0-.508-.009-.751-.027a10.112,10.112,0,0,1-5.3-2.017c-1.454-1.1-2.322-2.411-2.322-3.495a2.167,2.167,0,0,1,1.779-2.073A10.627,10.627,0,0,1,1552.161,551.259Zm10.148,3.619a6.547,6.547,0,0,0-2.474-.857,40.628,40.628,0,0,0-5-.646c-1.046-.078-1.922-.116-2.678-.116-2.312,0-2.847.367-2.941.454a3.716,3.716,0,0,0,1.53,1.883,8.114,8.114,0,0,0,4.237,1.616c.194.015.4.022.6.022a12.162,12.162,0,0,0,4.584-.987A5.561,5.561,0,0,0,1562.309,554.878Z" transform="translate(-1489 -492)"/>
        </g>
      </g>
    </g>
  </g>
</svg>
