<svg xmlns="http://www.w3.org/2000/svg" xmlns:xlink="http://www.w3.org/1999/xlink" width="100" height="100" viewBox="0 0 100 100">
  <defs>
    <clipPath id="clip-Face-with-Crossed-Out-Eyes">
      <rect width="100" height="100"/>
    </clipPath>
  </defs>
  <g id="Face-with-Crossed-Out-Eyes" clip-path="url(#clip-Face-with-Crossed-Out-Eyes)">
    <g id="Group_196" data-name="Group 196">
      <path id="Path_4" data-name="Path 4" d="M50,7.5A42.5,42.5,0,1,0,92.5,50,42.548,42.548,0,0,0,50,7.5M50,0A50,50,0,1,1,0,50,50,50,0,0,1,50,0Z"/>
      <g id="Group_195" data-name="Group 195" transform="translate(0)">
        <ellipse id="Ellipse_15" data-name="Ellipse 15" cx="13" cy="14" rx="13" ry="14" transform="translate(37 61)"/>
        <g id="Group_194" data-name="Group 194" transform="translate(0.5)">
          <path id="Union_5" data-name="Union 5" d="M1.414-1.414,9.1,6.276l7.69-7.69,2.828,2.828L11.933,9.1h0l7.69,7.69-2.828,2.828L9.1,11.933l-7.69,7.69-2.828-2.828L6.276,9.1l-7.69-7.69Z" transform="translate(22.5 34.291)"/>
          <path id="Union_6" data-name="Union 6" d="M1.414-1.414,9.1,6.276l7.69-7.69,2.828,2.828L11.933,9.1h0l7.69,7.69-2.828,2.828L9.1,11.933l-7.69,7.69-2.828-2.828L6.276,9.1l-7.69-7.69Z" transform="translate(59.06 34.291)"/>
        </g>
        <g id="Group_193" data-name="Group 193" transform="translate(0.574)">
          <path id="Path_5" data-name="Path 5" d="M2.5,0A2.5,2.5,0,0,0,.3,3.69a24.75,24.75,0,0,0,17.86,11.577,2.5,2.5,0,0,0,.7-4.95A19.815,19.815,0,0,1,4.7,1.311,2.5,2.5,0,0,0,2.5,0Z" transform="matrix(-0.988, 0.156, -0.156, -0.988, 81.574, 29.104)"/>
          <path id="Path_5-2" data-name="Path 5" d="M2.5,15.292A2.5,2.5,0,0,1,.3,11.6,24.75,24.75,0,0,1,18.162.025a2.5,2.5,0,0,1,.7,4.95A19.815,19.815,0,0,0,4.7,13.981,2.5,2.5,0,0,1,2.5,15.292Z" transform="translate(19.818 14) rotate(9)"/>
        </g>
      </g>
    </g>
  </g>
</svg>
