<svg xmlns="http://www.w3.org/2000/svg" xmlns:xlink="http://www.w3.org/1999/xlink" width="100" height="100" viewBox="0 0 100 100">
  <defs>
    <clipPath id="clip-Face-with-Monocle">
      <rect width="100" height="100"/>
    </clipPath>
  </defs>
  <g id="Face-with-Monocle" clip-path="url(#clip-Face-with-Monocle)">
    <g id="Group_227" data-name="Group 227">
      <path id="Path_4" data-name="Path 4" d="M50,7.5A42.5,42.5,0,1,0,92.5,50,42.548,42.548,0,0,0,50,7.5M50,0A50,50,0,1,1,0,50,50,50,0,0,1,50,0Z"/>
      <g id="Group_226" data-name="Group 226">
        <path id="Path_29" data-name="Path 29" d="M.807,53.547c8.105-4.65,17.74-1.389,25.37,1.91s-2.9-5.81-12.565-6.691A23.457,23.457,0,0,0,2.6,50.584C-2.161,52.881-4.275,56.463.807,53.547Z" transform="translate(37.441 10.68) rotate(8)"/>
        <g id="Group_225" data-name="Group 225">
          <g id="Group_224" data-name="Group 224">
            <path id="Path_84" data-name="Path 84" d="M19,3A16,16,0,0,0,7.686,30.314,16,16,0,0,0,30.314,7.686,15.9,15.9,0,0,0,19,3m0-3A19,19,0,1,1,0,19,19,19,0,0,1,19,0Z" transform="translate(44 18)"/>
            <path id="Path_82" data-name="Path 82" d="M208.568,521.1l3.459,2.913v8.558l-3.459,2.185Z" transform="translate(-128 -491)"/>
            <path id="Path_83" data-name="Path 83" d="M218.47,588a43.38,43.38,0,0,1-3.595-6.245,41.178,41.178,0,0,1-2.468-6.466,27.956,27.956,0,0,1-1.13-7.574c0-5.438,1.941-9.732,3.818-13.886,1.662-3.677,3.232-7.15,3.232-11.067a18.84,18.84,0,0,0-3.376-10.162,23.714,23.714,0,0,0-3.425-4.113l1-1.117a24.718,24.718,0,0,1,3.649,4.364,23.42,23.42,0,0,1,2.5,4.856,17.81,17.81,0,0,1,1.148,6.173c0,4.24-1.634,7.856-3.365,11.685-1.812,4.008-3.685,8.153-3.685,13.268a32.57,32.57,0,0,0,3.452,13.393,42.578,42.578,0,0,0,3.455,6.01Z" transform="translate(-129 -491)"/>
          </g>
          <g id="Group_223" data-name="Group 223">
            <ellipse id="Ellipse_4" data-name="Ellipse 4" cx="6.154" cy="7.564" rx="6.154" ry="7.564" transform="translate(25.703 26.668)"/>
            <ellipse id="Ellipse_5" data-name="Ellipse 5" cx="5.82" cy="6.847" rx="5.82" ry="6.847" transform="translate(54.661 30.102)"/>
          </g>
        </g>
      </g>
    </g>
  </g>
</svg>
