<svg xmlns="http://www.w3.org/2000/svg" xmlns:xlink="http://www.w3.org/1999/xlink" width="100" height="100" viewBox="0 0 100 100">
  <defs>
    <clipPath id="clip-Face-with-Tears-of-Joy">
      <rect width="100" height="100"/>
    </clipPath>
  </defs>
  <g id="Face-with-Tears-of-Joy" clip-path="url(#clip-Face-with-Tears-of-Joy)">
    <g id="Group_108" data-name="Group 108">
      <path id="Path_4" data-name="Path 4" d="M49.807,7.471A42.336,42.336,0,1,0,92.143,49.807,42.384,42.384,0,0,0,49.807,7.471m0-7.471A49.807,49.807,0,1,1,0,49.807,49.807,49.807,0,0,1,49.807,0Z"/>
      <path id="Path_45" data-name="Path 45" d="M8.107,28.517S17.917,10.506,15.955,4.5s-13.734-6-15.7,0S8.107,28.517,8.107,28.517Z" transform="translate(102 74.732) rotate(150)"/>
      <path id="Path_46" data-name="Path 46" d="M8.715,0s10.546,19.361,8.436,25.815-14.764,6.454-16.873,0S8.715,0,8.715,0Z" transform="matrix(0.946, 0.326, -0.326, 0.946, 8.127, 50)"/>
      <g id="Group_67" data-name="Group 67" transform="translate(9 30.567)">
        <g id="Group_11" data-name="Group 11" transform="translate(9.769 12.007)">
          <path id="Path_14" data-name="Path 14" d="M22.37,55.524c-6.915-3.445-15.03-2.444-21.539,0s2.343-8.5,10.953-8.669S29.285,58.969,22.37,55.524Z" transform="translate(1.417 -46.854)"/>
          <path id="Path_18" data-name="Path 18" d="M22.37,55.524c-6.915-3.445-15.03-2.444-21.539,0s2.343-8.5,10.953-8.669S29.285,58.969,22.37,55.524Z" transform="translate(36.628 -46.854)"/>
        </g>
        <g id="Group_66" data-name="Group 66" transform="translate(0 0)">
          <g id="Group_5" data-name="Group 5">
            <path id="Path_5" data-name="Path 5" d="M2.489,15.233A2.491,2.491,0,0,1,.3,11.557,24.655,24.655,0,0,1,18.092.025a2.49,2.49,0,0,1,.7,4.931A19.738,19.738,0,0,0,4.681,13.927,2.49,2.49,0,0,1,2.489,15.233Z" transform="matrix(0.995, -0.105, 0.105, 0.995, 0, 2.188)"/>
            <path id="Path_15" data-name="Path 15" d="M18.446,15.233a2.51,2.51,0,0,1-.354-.025A24.655,24.655,0,0,1,.3,3.676,2.49,2.49,0,0,1,4.679,1.3a19.64,19.64,0,0,0,14.114,8.975,2.49,2.49,0,0,1-.347,4.956Z" transform="matrix(-0.995, -0.105, 0.105, -0.995, 79.417, 17.338)"/>
          </g>
        </g>
      </g>
      <g id="Group_95" data-name="Group 95" transform="translate(19 58.394)">
        <g id="Group_20" data-name="Group 20" transform="translate(0)">
          <path id="Path_22" data-name="Path 22" d="M2.485,46.52a10.089,10.089,0,0,1,4.732,1.487c5.122,2.808,12.2,4.293,20.459,4.293,10.245,0,20.15-2.273,25.017-4.386a6.134,6.134,0,0,1,2.425-.559c1.916,0,4.162,1.288,4.186,4.92.029,4.388-3.08,10.674-7.737,15.642a30.73,30.73,0,0,1-22.08,10.036l-.354,0c-7.953,0-15.9-3.636-22.387-10.237C1.586,62.465-2.017,55.786-2.018,51.476-2.018,48.465-.25,46.52,2.485,46.52ZM27.676,56.9C18.642,56.9,10.8,55.223,5,52.044a6.531,6.531,0,0,0-2.4-.914c-.126.85.279,3.5,2.8,7.531C9.687,65.5,18.565,73.494,29.424,73.349c13.283-.175,20.513-10.238,22.412-13.317,2.451-3.974,2.935-6.844,2.86-7.964-.052.019-.109.042-.171.069C49.059,54.509,38.637,56.9,27.676,56.9Z" transform="translate(2.018 -46.52)"/>
        </g>
        <path id="Path_32" data-name="Path 32" d="M4.015,20.327c12.126-10.793,44.968-6.972,51.9-.906S51.45.719,30.294.012-8.111,31.12,4.015,20.327Z" transform="matrix(-1, -0.017, 0.017, -1, 60.382, 29.084)"/>
      </g>
    </g>
  </g>
</svg>
