<svg xmlns="http://www.w3.org/2000/svg" xmlns:xlink="http://www.w3.org/1999/xlink" width="100" height="100" viewBox="0 0 100 100">
  <defs>
    <clipPath id="clip-Face-Blowing-a-Kiss">
      <rect width="100" height="100"/>
    </clipPath>
  </defs>
  <g id="Face-Blowing-a-Kiss" clip-path="url(#clip-Face-Blowing-a-Kiss)">
    <g id="Group_111" data-name="Group 111">
      <path id="Path_4" data-name="Path 4" d="M50,7.5A42.5,42.5,0,1,0,92.5,50,42.548,42.548,0,0,0,50,7.5M50,0A50,50,0,1,1,0,50,50,50,0,0,1,50,0Z"/>
      <g id="Group_110" data-name="Group 110">
        <g id="Group_75" data-name="Group 75" transform="translate(14.338 24.027)">
          <g id="Group_74" data-name="Group 74">
            <path id="Path_5" data-name="Path 5" d="M2.5,15.292A2.5,2.5,0,0,1,.3,11.6,24.75,24.75,0,0,1,18.162.025a2.5,2.5,0,0,1,.7,4.95A19.815,19.815,0,0,0,4.7,13.981,2.5,2.5,0,0,1,2.5,15.292Z" transform="matrix(0.995, -0.105, 0.105, 0.995, 0, 2.197)"/>
            <path id="Path_15" data-name="Path 15" d="M18.517,15.292a2.52,2.52,0,0,1-.355-.025A24.75,24.75,0,0,1,.3,3.69,2.5,2.5,0,0,1,4.7,1.307a19.717,19.717,0,0,0,14.169,9.01,2.5,2.5,0,0,1-.349,4.975Z" transform="translate(69.723 20.096) rotate(162)"/>
          </g>
          <g id="Group_73" data-name="Group 73" transform="translate(15.662 15.515)">
            <path id="Path_18" data-name="Path 18" d="M18.084,55.558C12.415,52.1,5.762,53.1.426,55.558s1.921-8.532,8.979-8.7S23.753,59.016,18.084,55.558Z" transform="translate(29.301 -42.712)"/>
            <ellipse id="Ellipse_5" data-name="Ellipse 5" cx="5.638" cy="8.458" rx="5.638" ry="8.458"/>
          </g>
        </g>
        <g id="Group_109" data-name="Group 109">
          <path id="Path_2" data-name="Path 2" d="M16.317,29.355C7.543,23.494,2.942,18.162,1.055,13.7-4,1.74,10.439-3.98,16.317,3.08,22.195-3.98,36.635,1.74,31.579,13.7,29.692,18.162,25.091,23.494,16.317,29.355Z" transform="matrix(0.966, 0.259, -0.259, 0.966, 70.098, 56.458)"/>
          <path id="Path_47" data-name="Path 47" d="M300.251,34.431a2,2,0,0,1-.455-3.948,41.571,41.571,0,0,0,7.1-2.262,10.285,10.285,0,0,1-4.647-3.486,3.039,3.039,0,0,1-.539-2.485c.42-1.842,2.346-2.883,4.385-3.984.2-.108.429-.232.66-.36a56.681,56.681,0,0,0-7.432-1.4,2,2,0,0,1,.551-3.962c8.83,1.228,11.651,2.314,12.072,4.648.4,2.24-1.81,3.435-3.95,4.591a22.994,22.994,0,0,0-2.024,1.183A7.256,7.256,0,0,0,308.6,24.6c1.3.556,3.472,1.485,3.379,4.274-.018,1.218-.776,1.858-3.6,3.071a46.639,46.639,0,0,1-7.662,2.435A2.005,2.005,0,0,1,300.251,34.431Z" transform="translate(-249.6 49.473)"/>
        </g>
      </g>
    </g>
  </g>
</svg>
