<svg xmlns="http://www.w3.org/2000/svg" xmlns:xlink="http://www.w3.org/1999/xlink" width="100" height="100" viewBox="0 0 100 100">
  <defs>
    <clipPath id="clip-Face-with-Symbols-on-Mouth">
      <rect width="100" height="100"/>
    </clipPath>
  </defs>
  <g id="Face-with-Symbols-on-Mouth" clip-path="url(#clip-Face-with-Symbols-on-Mouth)">
    <g id="Group_243" data-name="Group 243" transform="translate(1)">
      <path id="Path_4" data-name="Path 4" d="M50,7.5A42.5,42.5,0,1,0,92.5,50,42.548,42.548,0,0,0,50,7.5M50,0A50,50,0,1,1,0,50,50,50,0,0,1,50,0Z" transform="translate(-1)"/>
      <g id="Group_242" data-name="Group 242" transform="translate(0)">
        <g id="Group_241" data-name="Group 241" transform="translate(-1 -12)">
          <g id="Group_240" data-name="Group 240" transform="translate(-0.38)">
            <path id="Union_7" data-name="Union 7" d="M-1142.3-619.7a12.677,12.677,0,0,1,.863-4.683,2.489,2.489,0,0,1-1.222-.5,2.5,2.5,0,0,1-.467-3.5,25,25,0,0,1,19.646-8.726,2.711,2.711,0,0,1,.355.031,2.5,2.5,0,0,1,2.105,2.509,2.5,2.5,0,0,1-2.539,2.46,20.416,20.416,0,0,0-11.685,3.343c2.971.65,5.252,4.463,5.252,9.068,0,5.063-2.756,9.166-6.154,9.166S-1142.3-614.633-1142.3-619.7Z" transform="translate(1199.625 678.11)"/>
            <path id="Union_8" data-name="Union 8" d="M1.34,9.166A12.677,12.677,0,0,0,2.2,13.848a2.5,2.5,0,0,0-1.689,4A25,25,0,0,0,20.16,26.576a2.711,2.711,0,0,0,.355-.031,2.5,2.5,0,0,0-.434-4.969A20.416,20.416,0,0,1,8.4,18.233c2.971-.65,5.252-4.463,5.252-9.068C13.649,4.1,10.893,0,7.495,0S1.34,4.1,1.34,9.166Z" transform="translate(44 67.58) rotate(180)"/>
          </g>
        </g>
        <path id="Exclusion_4" data-name="Exclusion 4" d="M-1180-616h-91v-26h91v26Zm-63.376-9.442v2.57a7.614,7.614,0,0,0,3.507.853v1.957h1.354v-2.013a4.714,4.714,0,0,0,2.811-1.146,3.292,3.292,0,0,0,.984-2.481,3.228,3.228,0,0,0-.882-2.278,7.49,7.49,0,0,0-2.912-1.674v-3.516a7.047,7.047,0,0,1,2.922.965v-2.5a6.887,6.887,0,0,0-2.922-.631v-1.688h-1.354v1.725a4.346,4.346,0,0,0-2.728,1.193,3.385,3.385,0,0,0-1.03,2.481,3.455,3.455,0,0,0,.793,2.3,7.2,7.2,0,0,0,2.965,1.749v3.378a7.453,7.453,0,0,1-1.9-.428,5.423,5.423,0,0,1-1.6-.806Zm13.756.593a1.794,1.794,0,0,0-1.22.427,1.4,1.4,0,0,0-.487,1.1,1.442,1.442,0,0,0,.482,1.09,1.732,1.732,0,0,0,1.225.45,1.726,1.726,0,0,0,1.219-.436,1.452,1.452,0,0,0,.469-1.1,1.415,1.415,0,0,0-.473-1.09A1.738,1.738,0,0,0-1229.62-624.848Zm-21.854,1.41h0a7.984,7.984,0,0,0,.667.645,4.758,4.758,0,0,0,.747.524,4.028,4.028,0,0,0,.835.353,3.3,3.3,0,0,0,.932.13,5.825,5.825,0,0,0,1.109-.1,5.672,5.672,0,0,0,1.006-.3v-2.209a3.2,3.2,0,0,1-.807.274,4.379,4.379,0,0,1-.909.1,1.962,1.962,0,0,1-.909-.256,3.753,3.753,0,0,1-.937-.728,10.6,10.6,0,0,0,1.071-1.3,8.643,8.643,0,0,0,.831-1.475,8.829,8.829,0,0,0,.534-1.633,8.078,8.078,0,0,0,.19-1.754,3.993,3.993,0,0,0-.047-.658,3.6,3.6,0,0,0-.148-.576h-2.5a3.288,3.288,0,0,1,.134.6,5.332,5.332,0,0,1,.042.678,7.713,7.713,0,0,1-.329,2.25,6.136,6.136,0,0,1-1.091,2.036,8.991,8.991,0,0,0-.733-.969,7.662,7.662,0,0,0-.76-.756,7.148,7.148,0,0,0-.8-.594,7.111,7.111,0,0,0-.853-.464,4.416,4.416,0,0,0,1.74-1.229,2.749,2.749,0,0,0,.617-1.786,2.513,2.513,0,0,0-.278-1.174,2.692,2.692,0,0,0-.788-.914,3.929,3.929,0,0,0-1.22-.593,5.446,5.446,0,0,0-1.563-.213,6.186,6.186,0,0,0-1.633.2,3.915,3.915,0,0,0-1.275.594,2.782,2.782,0,0,0-.831.956,2.766,2.766,0,0,0-.3,1.3,2.6,2.6,0,0,0,.144.863,3.42,3.42,0,0,0,.375.756,4.2,4.2,0,0,0,.525.64,6.055,6.055,0,0,0,.58.515,7.715,7.715,0,0,0-1.169.557,4.84,4.84,0,0,0-1.03.8,3.787,3.787,0,0,0-.737,1.081,3.346,3.346,0,0,0-.284,1.406,3.939,3.939,0,0,0,.376,1.762,3.629,3.629,0,0,0,1.043,1.276,4.65,4.65,0,0,0,1.591.774,7.411,7.411,0,0,0,2.009.26,7.72,7.72,0,0,0,1.568-.153,8.518,8.518,0,0,0,1.341-.39,6.782,6.782,0,0,0,1.09-.534,7.906,7.906,0,0,0,.825-.575Zm50.916-5.306a3.25,3.25,0,0,0-2.463.974,3.691,3.691,0,0,0-.923,2.635,3.355,3.355,0,0,0,.868,2.421,3.044,3.044,0,0,0,2.287.9,3.22,3.22,0,0,0,2.449-.974,3.673,3.673,0,0,0,.919-2.616,3.464,3.464,0,0,0-.826-2.468A3.039,3.039,0,0,0-1200.558-628.745Zm-1.085-6.559h0l-8.647,13.3h2.264l8.664-13.3Zm-19.824,9.027h2.125l-.677,3.209h1.855l.724-3.209h1.846l.418-1.67h-1.92l.51-2.3h1.716l.362-1.67h-1.716l.686-3.3h-1.883l-.706,3.3h-2.124l.687-3.3h-1.9l-.686,3.3h-1.9l-.315,1.67h1.874l-.491,2.3h-1.744l-.343,1.67h1.725l-.659,3.209h1.856l.686-3.209Zm-9.711-9.027h0l.343,9.166h2.375l.362-9.166Zm22.336-.185a3.25,3.25,0,0,0-2.463.974,3.69,3.69,0,0,0-.923,2.635,3.353,3.353,0,0,0,.868,2.421,3.041,3.041,0,0,0,2.287.9,3.235,3.235,0,0,0,2.449-.965,3.64,3.64,0,0,0,.919-2.607,3.488,3.488,0,0,0-.831-2.477A3.026,3.026,0,0,0-1208.842-635.489Zm8.164,12.042c-.868,0-1.309-.6-1.309-1.781,0-1.25.453-1.884,1.345-1.884a1.107,1.107,0,0,1,.928.473,2.21,2.21,0,0,1,.352,1.336C-1199.362-624.071-1199.8-623.447-1200.678-623.447Zm-55.471-.557a2.678,2.678,0,0,1-.9-.143,2.094,2.094,0,0,1-.7-.4,1.776,1.776,0,0,1-.45-.621,2.008,2.008,0,0,1-.157-.807,2.278,2.278,0,0,1,.162-.886,2.486,2.486,0,0,1,.432-.687,3.071,3.071,0,0,1,.617-.528,6.959,6.959,0,0,1,.728-.413c.3.133.6.286.9.455a6.4,6.4,0,0,1,.9.617,8.109,8.109,0,0,1,.919.881,9.656,9.656,0,0,1,.937,1.257,7,7,0,0,1-.672.482,5.168,5.168,0,0,1-.794.408,5.458,5.458,0,0,1-.909.284A4.782,4.782,0,0,1-1256.149-624Zm17.635-.241h0v-2.81c.881.382,1.327.882,1.327,1.484,0,.745-.446,1.191-1.325,1.326Zm19.534-3.7h-2.143l.51-2.3h2.152l-.519,2.3Zm10.018-2.245c-.856,0-1.29-.6-1.29-1.781,0-1.25.456-1.884,1.354-1.884.831,0,1.252.609,1.252,1.809C-1207.646-630.816-1208.089-630.192-1208.963-630.192Zm-30.906,0h0c-.855-.424-1.288-.961-1.288-1.6,0-.739.434-1.191,1.29-1.346v2.941Zm-16.086-.529h0a2.534,2.534,0,0,1-.806-.7,1.57,1.57,0,0,1-.325-.956,1.1,1.1,0,0,1,.1-.468,1.085,1.085,0,0,1,.292-.376,1.476,1.476,0,0,1,.446-.25,1.633,1.633,0,0,1,.561-.093,1.425,1.425,0,0,1,.473.078,1.328,1.328,0,0,1,.4.223,1.008,1.008,0,0,1,.278.357,1.1,1.1,0,0,1,.1.482,1.475,1.475,0,0,1-.125.621,1.628,1.628,0,0,1-.334.473,2.2,2.2,0,0,1-.482.353,4.265,4.265,0,0,1-.58.259Z" transform="translate(1277 699)"/>
      </g>
    </g>
  </g>
</svg>
