<svg xmlns="http://www.w3.org/2000/svg" xmlns:xlink="http://www.w3.org/1999/xlink" width="100" height="100" viewBox="0 0 100 100">
  <defs>
    <clipPath id="clip-Flushed-Face">
      <rect width="100" height="100"/>
    </clipPath>
  </defs>
  <g id="Flushed-Face" clip-path="url(#clip-Flushed-Face)">
    <path id="Path_4" data-name="Path 4" d="M50,7.5A42.5,42.5,0,1,0,92.5,50,42.548,42.548,0,0,0,50,7.5M50,0A50,50,0,1,1,0,50,50,50,0,0,1,50,0Z"/>
    <g id="Group_270" data-name="Group 270">
      <path id="Path_4-2" data-name="Path 4" d="M50,7.5A42.5,42.5,0,1,0,92.5,50,42.548,42.548,0,0,0,50,7.5M50,0A50,50,0,1,1,0,50,50,50,0,0,1,50,0Z"/>
      <g id="Group_269" data-name="Group 269">
        <g id="Group_268" data-name="Group 268">
          <g id="Group_267" data-name="Group 267" transform="translate(-3)">
            <g id="Group_150" data-name="Group 150" transform="translate(6)">
              <circle id="Ellipse_3" data-name="Ellipse 3" cx="5.5" cy="5.5" r="5.5" transform="translate(24 43)"/>
              <path id="Path_62" data-name="Path 62" d="M16,3A13,13,0,0,0,6.808,25.192,13,13,0,0,0,25.192,6.808,12.915,12.915,0,0,0,16,3m0-3A16,16,0,1,1,0,16,16,16,0,0,1,16,0Z" transform="translate(13 32)"/>
            </g>
            <g id="Group_149" data-name="Group 149" transform="translate(-1 -2)">
              <circle id="Ellipse_13" data-name="Ellipse 13" cx="5.5" cy="5.5" r="5.5" transform="translate(68 45)"/>
              <path id="Path_63" data-name="Path 63" d="M16,3A13,13,0,0,0,6.808,25.192,13,13,0,0,0,25.192,6.808,12.915,12.915,0,0,0,16,3m0-3A16,16,0,1,1,0,16,16,16,0,0,1,16,0Z" transform="translate(57 34)"/>
            </g>
          </g>
          <g id="Group_32" data-name="Group 32" transform="translate(18 14.295)">
            <path id="Path_26" data-name="Path 26" d="M2.5,15.8a2.5,2.5,0,0,1-2.23-3.626A24.42,24.42,0,0,1,17.783.029a2.5,2.5,0,1,1,.754,4.943,19.474,19.474,0,0,0-13.8,9.45A2.5,2.5,0,0,1,2.5,15.8Z" transform="matrix(0.94, 0.342, -0.342, 0.94, 5.403, 0)"/>
            <path id="Path_27" data-name="Path 27" d="M18.163,15.8a2.518,2.518,0,0,1-.38-.029A24.42,24.42,0,0,1,.268,3.626,2.5,2.5,0,0,1,4.73,1.369a19.348,19.348,0,0,0,13.807,9.456,2.5,2.5,0,0,1-.374,4.972Z" transform="translate(63.338 14.844) rotate(160)"/>
          </g>
        </g>
        <path id="Path_28" data-name="Path 28" d="M-21.981,93.82H-42.134a2.5,2.5,0,0,1-2.5-2.5,2.5,2.5,0,0,1,2.5-2.5h20.153a2.5,2.5,0,0,1,2.5,2.5A2.5,2.5,0,0,1-21.981,93.82Z" transform="translate(82.634 -11.605)"/>
      </g>
    </g>
  </g>
</svg>
