<svg xmlns="http://www.w3.org/2000/svg" xmlns:xlink="http://www.w3.org/1999/xlink" width="100" height="100" viewBox="0 0 100 100">
  <defs>
    <clipPath id="clip-Kissing-Face">
      <rect width="100" height="100"/>
    </clipPath>
  </defs>
  <g id="Kissing-Face" clip-path="url(#clip-Kissing-Face)">
    <g id="Group_120" data-name="Group 120">
      <path id="Path_4" data-name="Path 4" d="M50,7.5A42.5,42.5,0,1,0,92.5,50,42.548,42.548,0,0,0,50,7.5M50,0A50,50,0,1,1,0,50,50,50,0,0,1,50,0Z"/>
      <g id="Group_109" data-name="Group 109">
        <path id="Path_47" data-name="Path 47" d="M300.251,34.431a2,2,0,0,1-.455-3.948,41.571,41.571,0,0,0,7.1-2.262,10.285,10.285,0,0,1-4.647-3.486,3.039,3.039,0,0,1-.539-2.485c.42-1.842,2.346-2.883,4.385-3.984.2-.108.429-.232.66-.36a56.681,56.681,0,0,0-7.432-1.4,2,2,0,0,1,.551-3.962c8.83,1.228,11.651,2.314,12.072,4.648.4,2.24-1.81,3.435-3.95,4.591a22.994,22.994,0,0,0-2.024,1.183A7.256,7.256,0,0,0,308.6,24.6c1.3.556,3.472,1.485,3.379,4.274-.018,1.218-.776,1.858-3.6,3.071a46.639,46.639,0,0,1-7.662,2.435A2.005,2.005,0,0,1,300.251,34.431Z" transform="translate(-249.6 49.473)"/>
      </g>
      <g id="Group_89" data-name="Group 89" transform="translate(28 33.995)">
        <g id="Group_36" data-name="Group 36" transform="translate(0 0)">
          <ellipse id="Ellipse_4" data-name="Ellipse 4" cx="6.154" cy="6.502" rx="6.154" ry="6.502" transform="translate(0)"/>
          <ellipse id="Ellipse_5" data-name="Ellipse 5" cx="6.154" cy="6.502" rx="6.154" ry="6.502" transform="translate(31.327)"/>
        </g>
      </g>
    </g>
  </g>
</svg>
