<svg xmlns="http://www.w3.org/2000/svg" xmlns:xlink="http://www.w3.org/1999/xlink" width="100" height="100" viewBox="0 0 100 100">
  <defs>
    <clipPath id="clip-Kissing-Face-with-Closed-Eyes">
      <rect width="100" height="100"/>
    </clipPath>
  </defs>
  <g id="Kissing-Face-with-Closed-Eyes" clip-path="url(#clip-Kissing-Face-with-Closed-Eyes)">
    <g id="Group_119" data-name="Group 119">
      <path id="Path_4" data-name="Path 4" d="M50,7.5A42.5,42.5,0,1,0,92.5,50,42.548,42.548,0,0,0,50,7.5M50,0A50,50,0,1,1,0,50,50,50,0,0,1,50,0Z"/>
      <g id="Group_118" data-name="Group 118">
        <g id="Group_109" data-name="Group 109">
          <path id="Path_47" data-name="Path 47" d="M300.251,34.431a2,2,0,0,1-.455-3.948,41.571,41.571,0,0,0,7.1-2.262,10.285,10.285,0,0,1-4.647-3.486,3.039,3.039,0,0,1-.539-2.485c.42-1.842,2.346-2.883,4.385-3.984.2-.108.429-.232.66-.36a56.681,56.681,0,0,0-7.432-1.4,2,2,0,0,1,.551-3.962c8.83,1.228,11.651,2.314,12.072,4.648.4,2.24-1.81,3.435-3.95,4.591a22.994,22.994,0,0,0-2.024,1.183A7.256,7.256,0,0,0,308.6,24.6c1.3.556,3.472,1.485,3.379,4.274-.018,1.218-.776,1.858-3.6,3.071a46.639,46.639,0,0,1-7.662,2.435A2.005,2.005,0,0,1,300.251,34.431Z" transform="translate(-249.6 49.473)"/>
        </g>
        <g id="Group_117" data-name="Group 117">
          <g id="Group_116" data-name="Group 116" transform="translate(-0.349)">
            <path id="Path_15" data-name="Path 15" d="M18.517,15.292a2.52,2.52,0,0,1-.355-.025A24.75,24.75,0,0,1,.3,3.69,2.5,2.5,0,0,1,4.7,1.307a19.717,19.717,0,0,0,14.169,9.01,2.5,2.5,0,0,1-.349,4.975Z" transform="translate(84.061 36.506) rotate(162)"/>
            <path id="Path_15-2" data-name="Path 15" d="M18.517,0a2.52,2.52,0,0,0-.355.025A24.75,24.75,0,0,0,.3,11.6a2.5,2.5,0,0,0,4.4,2.383,19.716,19.716,0,0,1,14.169-9.01A2.5,2.5,0,0,0,18.517,0Z" transform="matrix(0.951, 0.309, -0.309, 0.951, 22.075, 21.962)"/>
          </g>
          <g id="Group_115" data-name="Group 115" transform="translate(-1.193)">
            <path id="Path_18" data-name="Path 18" d="M18.544,53.772c-5.693-.927-10.583-.645-18.08,0s2.122-5.958,9.18-6.129S24.237,54.7,18.544,53.772Z" transform="translate(59.301 -2.854)"/>
            <path id="Path_53" data-name="Path 53" d="M18.544,53.772c-5.693-.927-10.583-.645-18.08,0s2.122-5.958,9.18-6.129S24.237,54.7,18.544,53.772Z" transform="translate(25.452 -2.854)"/>
          </g>
        </g>
      </g>
    </g>
  </g>
</svg>
