<svg xmlns="http://www.w3.org/2000/svg" xmlns:xlink="http://www.w3.org/1999/xlink" width="100" height="100" viewBox="0 0 100 100">
  <defs>
    <clipPath id="clip-Lying-Face">
      <rect width="100" height="100"/>
    </clipPath>
  </defs>
  <g id="Lying-Face" clip-path="url(#clip-Lying-Face)">
    <g id="Group_168" data-name="Group 168">
      <g id="Group_167" data-name="Group 167">
        <path id="Path_4" data-name="Path 4" d="M50,7.5A42.5,42.5,0,1,0,92.5,50,42.548,42.548,0,0,0,50,7.5M50,0A50,50,0,1,1,0,50,50,50,0,0,1,50,0Z"/>
        <g id="Group_166" data-name="Group 166" transform="translate(1)">
          <g id="Group_165" data-name="Group 165">
            <g id="Group_90" data-name="Group 90" transform="translate(-3.183 -3)">
              <g id="Group_89" data-name="Group 89" transform="translate(29.183 34)">
                <g id="Group_36" data-name="Group 36" transform="translate(0 0)">
                  <ellipse id="Ellipse_4" data-name="Ellipse 4" cx="6.432" cy="8" rx="6.432" ry="8"/>
                  <ellipse id="Ellipse_5" data-name="Ellipse 5" cx="6.432" cy="8" rx="6.432" ry="8" transform="translate(32.742)"/>
                </g>
              </g>
            </g>
            <g id="Group_164" data-name="Group 164" transform="translate(0.356)">
              <path id="Path_15" data-name="Path 15" d="M18.517,15.292a2.52,2.52,0,0,1-.355-.025A24.75,24.75,0,0,1,.3,3.69,2.5,2.5,0,0,1,4.7,1.307a19.717,19.717,0,0,0,14.169,9.01,2.5,2.5,0,0,1-.349,4.975Z" transform="translate(77.497 29.388) rotate(-173)"/>
              <path id="Path_15-2" data-name="Path 15" d="M18.517,0a2.52,2.52,0,0,0-.355.025A24.75,24.75,0,0,0,.3,11.6a2.5,2.5,0,0,0,4.4,2.383,19.716,19.716,0,0,1,14.169-9.01A2.5,2.5,0,0,0,18.517,0Z" transform="matrix(0.951, 0.309, -0.309, 0.951, 22.37, 14.649)"/>
            </g>
          </g>
          <path id="Path_59" data-name="Path 59" d="M1201.019,223.842a2,2,0,0,1-1.045-3.707c.7-.43,1.571-1.095,2.489-1.8,2.344-1.8,5.26-4.033,8.561-4.844a8.7,8.7,0,0,1,7.1,1.671,14.606,14.606,0,0,1,2.771,2.512l-3.1,2.528,0,.005a10.952,10.952,0,0,0-2.033-1.812,4.762,4.762,0,0,0-3.785-1.02c-2.486.611-4.927,2.482-7.081,4.134a34.867,34.867,0,0,1-2.837,2.038A1.991,1.991,0,0,1,1201.019,223.842Z" transform="translate(-1165.517 -140)"/>
        </g>
      </g>
      <path id="Path_66" data-name="Path 66" d="M347.774,471.283c-1.338,0-2.878-.085-4.68-.254a15.351,15.351,0,0,1-7.605-2.7,18.818,18.818,0,0,0-8.381-3.043,123.978,123.978,0,0,0-16.115-1.428,2,2,0,0,1,.005-4h0a125.437,125.437,0,0,1,16.7,1.472,22.768,22.768,0,0,1,9.9,3.6,11.4,11.4,0,0,0,5.868,2.119c7.453.7,9.452-.21,10.385-2.015a2.734,2.734,0,0,0,.2-2.835c-.659-1.252-2.386-2.666-5.133-4.2-3.669-2.052-6.6-2.448-10.656-2.995a76.5,76.5,0,0,1-9.145-1.663c-8.678-2.2-10.4-2.46-10.471-2.47l.021,0,.508-3.968c.169.022,1.915.278,10.923,2.557a73.129,73.129,0,0,0,8.7,1.576c4.153.56,7.74,1.044,12.074,3.468,3.53,1.974,5.665,3.827,6.72,5.831a6.342,6.342,0,0,1,.75,3.388,7.861,7.861,0,0,1-.936,3.148,7.666,7.666,0,0,1-5.481,4.022A18.739,18.739,0,0,1,347.774,471.283Z" transform="matrix(0.998, 0.07, -0.07, 0.998, -224.961, -417.057)"/>
    </g>
  </g>
</svg>
