<svg xmlns="http://www.w3.org/2000/svg" xmlns:xlink="http://www.w3.org/1999/xlink" width="100" height="100" viewBox="0 0 100 100">
  <defs>
    <clipPath id="clip-Money-Mouth-Face">
      <rect width="100" height="100"/>
    </clipPath>
  </defs>
  <g id="Money-Mouth-Face" clip-path="url(#clip-Money-Mouth-Face)">
    <path id="Path_4" data-name="Path 4" d="M50,7.5A42.5,42.5,0,1,0,92.5,50,42.548,42.548,0,0,0,50,7.5M50,0A50,50,0,1,1,0,50,50,50,0,0,1,50,0Z"/>
    <path id="Exclusion_5" data-name="Exclusion 5" d="M-986.7-154.5a11.037,11.037,0,0,1-8.019-3.6,13.68,13.68,0,0,1-3.672-8.751l-.357-7.182c-.036-.736-.081-1.453-.125-2.146v-.02c-.039-.624-.076-1.213-.106-1.792a43.142,43.142,0,0,1-12.882-11.782,32.224,32.224,0,0,1-3.255-5.414,6.206,6.206,0,0,1-.841-3.215.414.414,0,0,1,.421-.355,3.2,3.2,0,0,1,1.654,1c1.75,1.585,6.413,3.313,12.794,4.738a82.043,82.043,0,0,0,16.117,2.114c.628,0,1.2-.019,1.714-.058.357.017.745.025,1.155.025,6.722,0,19.189-2.167,24.6-6.819,1.705-1.465,3.005-2.24,3.759-2.24a.645.645,0,0,1,.644.389c.661,1.475-2.1,7.042-7.124,12.671a44.707,44.707,0,0,1-12.857,10.156l.009.239v.012c.025.63.05,1.28.085,1.987l.357,7.183a12.918,12.918,0,0,1-3.289,9.444,10.3,10.3,0,0,1-7.358,3.353l-3.221.064Zm-1.908-13.757v1.96a5.986,5.986,0,0,0,3.173.756v1.837h1.081v-1.908a4.357,4.357,0,0,0,2.469-1.107,2.92,2.92,0,0,0,.888-2.162,2.894,2.894,0,0,0-.712-1.908,7.89,7.89,0,0,0-2.645-1.74v-4.052a4.492,4.492,0,0,1,2.549.756v-1.881a5.524,5.524,0,0,0-2.549-.492v-1.547h-1.081v1.582a3.952,3.952,0,0,0-2.364,1.147,3.142,3.142,0,0,0-.932,2.264,3.1,3.1,0,0,0,.611,1.916,7.426,7.426,0,0,0,2.686,1.767v3.911a5.332,5.332,0,0,1-1.719-.317,4.387,4.387,0,0,1-1.454-.782Zm4.254,1.046h0V-170.6c.992.526,1.494,1.141,1.494,1.829,0,.822-.5,1.345-1.493,1.555Zm-1.081-5.819h0a3.418,3.418,0,0,1-1.115-.834,1.708,1.708,0,0,1-.316-1.063,1.518,1.518,0,0,1,.386-1.046,1.851,1.851,0,0,1,1.047-.562v3.506Z" transform="translate(1035 256.541)"/>
    <g id="Group_262" data-name="Group 262" transform="translate(-890 178)">
      <text id="_" data-name="$" transform="translate(914 -125)" font-size="28" font-family="SegoeUI-Bold, Segoe UI" font-weight="700" letter-spacing="0.058em"><tspan x="0" y="0">$</tspan></text>
      <text id="_2" data-name="$" transform="translate(950 -125)" font-size="28" font-family="SegoeUI-Bold, Segoe UI" font-weight="700" letter-spacing="0.058em"><tspan x="0" y="0">$</tspan></text>
    </g>
    <path id="Path_5" data-name="Path 5" d="M2.5,0A2.5,2.5,0,0,0,.3,3.69a24.75,24.75,0,0,0,17.86,11.577,2.5,2.5,0,0,0,.7-4.95A19.815,19.815,0,0,1,4.7,1.311,2.5,2.5,0,0,0,2.5,0Z" transform="translate(85.148 33.104) rotate(171)"/>
    <path id="Path_5-2" data-name="Path 5" d="M2.5,15.292A2.5,2.5,0,0,1,.3,11.6,24.75,24.75,0,0,1,18.162.025a2.5,2.5,0,0,1,.7,4.95A19.815,19.815,0,0,0,4.7,13.981,2.5,2.5,0,0,1,2.5,15.292Z" transform="translate(16.392 18) rotate(9)"/>
  </g>
</svg>
