<svg xmlns="http://www.w3.org/2000/svg" xmlns:xlink="http://www.w3.org/1999/xlink" width="100" height="100" viewBox="0 0 100 100">
  <defs>
    <clipPath id="clip-Neutral-Face">
      <rect width="100" height="100"/>
    </clipPath>
  </defs>
  <g id="Neutral-Face" clip-path="url(#clip-Neutral-Face)">
    <g id="Group_135" data-name="Group 135">
      <path id="Path_4" data-name="Path 4" d="M50,7.5A42.5,42.5,0,1,0,92.5,50,42.548,42.548,0,0,0,50,7.5M50,0A50,50,0,1,1,0,50,50,50,0,0,1,50,0Z"/>
      <g id="Group_134" data-name="Group 134">
        <g id="Group_133" data-name="Group 133">
          <g id="Group_89" data-name="Group 89" transform="translate(-2.183 -2.332)">
            <g id="Group_36" data-name="Group 36" transform="translate(29.183 34)">
              <ellipse id="Ellipse_4" data-name="Ellipse 4" cx="6.154" cy="9.166" rx="6.154" ry="9.166"/>
              <ellipse id="Ellipse_5" data-name="Ellipse 5" cx="6.154" cy="9.166" rx="6.154" ry="9.166" transform="translate(34.327)"/>
            </g>
          </g>
          <path id="Path_28" data-name="Path 28" d="M-4.966,92.32H-44.134a3,3,0,0,1-3-3,3,3,0,0,1,3-3H-4.966a3,3,0,0,1,3,3A3,3,0,0,1-4.966,92.32Z" transform="translate(74.634 -24.377)"/>
        </g>
      </g>
    </g>
  </g>
</svg>
