<svg xmlns="http://www.w3.org/2000/svg" xmlns:xlink="http://www.w3.org/1999/xlink" width="100" height="100" viewBox="0 0 100 100">
  <defs>
    <clipPath id="clip-Pleading-Face">
      <rect width="100" height="100"/>
    </clipPath>
  </defs>
  <g id="Pleading-Face" clip-path="url(#clip-Pleading-Face)">
    <path id="Path_4" data-name="Path 4" d="M50,7.5A42.5,42.5,0,1,0,92.5,50,42.548,42.548,0,0,0,50,7.5M50,0A50,50,0,1,1,0,50,50,50,0,0,1,50,0Z"/>
    <path id="Path_60" data-name="Path 60" d="M16.4,0A16.4,16.4,0,1,1,0,16.4,16.4,16.4,0,0,1,16.4,0Z" transform="translate(15 35.501)" fill="none"/>
    <path id="Path_61" data-name="Path 61" d="M16.4,0A16.4,16.4,0,1,1,0,16.4,16.4,16.4,0,0,1,16.4,0Z" transform="translate(54 35.501)" fill="none"/>
    <g id="Group_199" data-name="Group 199" transform="translate(-1)">
      <path id="Exclusion_1" data-name="Exclusion 1" d="M-1383.25-461.5a14.653,14.653,0,0,1-10.429-4.32A14.653,14.653,0,0,1-1398-476.25a14.654,14.654,0,0,1,4.32-10.43A14.653,14.653,0,0,1-1383.25-491a14.653,14.653,0,0,1,10.43,4.32,14.653,14.653,0,0,1,4.32,10.43,14.652,14.652,0,0,1-4.32,10.429A14.654,14.654,0,0,1-1383.25-461.5Zm5.98-13.672c-1.192,0-2.664,1.117-3.663,2.78a6.674,6.674,0,0,0-1.011,3.1,2.154,2.154,0,0,0,.836,2.04,1.526,1.526,0,0,0,.8.21c1.192,0,2.664-1.117,3.663-2.78,1.278-2.126,1.357-4.434.176-5.144A1.527,1.527,0,0,0-1377.27-475.173Zm-6.486-12.927a12.272,12.272,0,0,0-6.508,2.123c-4.265,2.77-6.313,7.214-4.566,9.905a4.984,4.984,0,0,0,4.4,1.981,12.276,12.276,0,0,0,6.509-2.123,12.365,12.365,0,0,0,4.541-4.982,5.022,5.022,0,0,0,.024-4.923A4.983,4.983,0,0,0-1383.756-488.1Z" transform="translate(1415 525.501)"/>
      <path id="Exclusion_2" data-name="Exclusion 2" d="M14.749,0A14.75,14.75,0,0,0,4.32,25.179,14.75,14.75,0,1,0,25.179,4.32,14.654,14.654,0,0,0,14.749,0Zm5.98,13.672c-1.192,0-2.664-1.117-3.663-2.78a6.674,6.674,0,0,1-1.011-3.1,2.154,2.154,0,0,1,.836-2.04,1.526,1.526,0,0,1,.8-.21c1.192,0,2.664,1.117,3.663,2.78,1.278,2.126,1.357,4.434.176,5.144A1.527,1.527,0,0,1,20.729,13.672ZM14.244,26.6a12.272,12.272,0,0,1-6.508-2.123C3.47,21.705,1.422,17.262,3.17,14.57a4.984,4.984,0,0,1,4.4-1.981,12.276,12.276,0,0,1,6.509,2.123,12.365,12.365,0,0,1,4.541,4.982,5.022,5.022,0,0,1,.024,4.923A4.983,4.983,0,0,1,14.244,26.6Z" transform="translate(83.499 64) rotate(180)"/>
    </g>
    <g id="Group_198" data-name="Group 198" transform="translate(-4.172 1)">
      <path id="Path_20" data-name="Path 20" d="M18.7,15.407a2.522,2.522,0,0,1-.355-.025A25,25,0,0,1,.3,3.69,2.5,2.5,0,0,1,4.694,1.3h0a19.955,19.955,0,0,0,14.35,9.131,2.5,2.5,0,0,1-.349,4.975Z" transform="translate(17.172 33.038) rotate(-71)"/>
      <path id="Path_20-2" data-name="Path 20" d="M18.7,0a2.522,2.522,0,0,0-.355.025A25,25,0,0,0,.3,11.717a2.5,2.5,0,0,0,4.392,2.389h0a19.955,19.955,0,0,1,14.35-9.131A2.5,2.5,0,0,0,18.7,0Z" transform="translate(75.951 38.054) rotate(-109)"/>
    </g>
  </g>
</svg>
