<svg xmlns="http://www.w3.org/2000/svg" xmlns:xlink="http://www.w3.org/1999/xlink" width="100" height="100" viewBox="0 0 100 100">
  <defs>
    <clipPath id="clip-Relieved-Face">
      <rect width="100" height="100"/>
    </clipPath>
  </defs>
  <g id="Relieved-Face" clip-path="url(#clip-Relieved-Face)">
    <g id="Group_163" data-name="Group 163">
      <path id="Path_4" data-name="Path 4" d="M50,7.5A42.5,42.5,0,1,0,92.5,50,42.548,42.548,0,0,0,50,7.5M50,0A50,50,0,1,1,0,50,50,50,0,0,1,50,0Z"/>
      <g id="Group_162" data-name="Group 162" transform="translate(1)">
        <g id="Group_62" data-name="Group 62" transform="translate(15 47)">
          <g id="Group_11" data-name="Group 11" transform="translate(0)">
            <path id="Path_14" data-name="Path 14" d="M1.066,47.466c6.942,3.458,15.089,2.454,21.623,0s-2.352,8.532-11,8.7S-5.875,44.008,1.066,47.466Z" transform="translate(42.818 -46.854)"/>
            <path id="Path_18" data-name="Path 18" d="M1.066,47.466c6.942,3.458,15.089,2.454,21.623,0s-2.352,8.532-11,8.7S-5.875,44.008,1.066,47.466Z" transform="translate(1.417 -46.854)"/>
          </g>
        </g>
        <path id="Path_29" data-name="Path 29" d="M1.706,47.669c8.729,4.606,18.973,3.268,27.19,0S25.938,59.034,15.069,59.261-7.023,43.063,1.706,47.669Z" transform="translate(34.417 24.235)"/>
        <g id="Group_161" data-name="Group 161" transform="translate(0.036)">
          <path id="Path_19" data-name="Path 19" d="M2.5,15.407a2.5,2.5,0,0,1-2.2-3.69A25,25,0,0,1,18.34.025a2.5,2.5,0,0,1,.7,4.95A20.065,20.065,0,0,0,4.7,14.1,2.5,2.5,0,0,1,2.5,15.407Z" transform="translate(16.108 23) rotate(8)"/>
          <path id="Path_19-2" data-name="Path 19" d="M2.5,0A2.5,2.5,0,0,0,.3,3.69,25,25,0,0,0,18.34,15.382a2.5,2.5,0,0,0,.7-4.95A20.065,20.065,0,0,1,4.7,1.311,2.5,2.5,0,0,0,2.5,0Z" transform="translate(84.763 38.257) rotate(172)"/>
        </g>
      </g>
    </g>
  </g>
</svg>
