<svg xmlns="http://www.w3.org/2000/svg" xmlns:xlink="http://www.w3.org/1999/xlink" width="100" height="100" viewBox="0 0 100 100">
  <defs>
    <clipPath id="clip-Rolling-on-the-Floor-Laughing">
      <rect width="100" height="100"/>
    </clipPath>
  </defs>
  <g id="Rolling-on-the-Floor-Laughing" clip-path="url(#clip-Rolling-on-the-Floor-Laughing)">
    <g id="Group_106" data-name="Group 106">
      <path id="Path_4" data-name="Path 4" d="M50,7.5A42.5,42.5,0,1,0,92.5,50,42.548,42.548,0,0,0,50,7.5M50,0A50,50,0,1,1,0,50,50,50,0,0,1,50,0Z"/>
      <g id="Group_105" data-name="Group 105">
        <g id="Group_102" data-name="Group 102" transform="matrix(0.891, -0.454, 0.454, 0.891, -18.313, 28.62)">
          <g id="Group_95" data-name="Group 95" transform="translate(0.296)">
            <g id="Group_20" data-name="Group 20" transform="translate(16.704 54.637)">
              <path id="Path_22" data-name="Path 22" d="M2.872,46.52A10.956,10.956,0,0,1,8.01,48.134c5.562,3.05,13.245,4.662,22.218,4.662,11.126,0,21.882-2.469,27.167-4.763a6.662,6.662,0,0,1,2.633-.607c2.081,0,4.52,1.4,4.546,5.342.031,4.765-3.345,11.591-8.4,16.987a33.372,33.372,0,0,1-23.979,10.9l-.384,0c-8.636,0-17.27-3.948-24.311-11.117C1.9,63.836-2.017,56.582-2.018,51.9-2.018,48.633-.1,46.52,2.872,46.52ZM30.228,57.8c-9.811,0-18.325-1.825-24.622-5.277A7.092,7.092,0,0,0,3,51.526c-.136.923.3,3.8,3.043,8.179,4.651,7.425,14.293,16.109,26.086,15.951,14.425-.19,22.276-11.118,24.339-14.462,2.662-4.316,3.187-7.432,3.105-8.648-.056.021-.118.046-.185.075C53.45,55.2,42.132,57.8,30.228,57.8Z" transform="translate(2.018 -46.52)"/>
            </g>
            <path id="Path_32" data-name="Path 32" d="M4.36,22.074c13.169-11.721,48.833-7.571,56.365-.984S55.872.781,32.9.013-8.808,33.8,4.36,22.074Z" transform="matrix(-1, -0.017, 0.017, -1, 82.276, 86.221)"/>
          </g>
          <g id="Group_101" data-name="Group 101" transform="translate(0.254)">
            <path id="Path_24" data-name="Path 24" d="M2.677,17.41C9.7,7.056,11.83,5.9,19.045,17.41S17.264.343,10.721,0-4.348,27.765,2.677,17.41Z" transform="translate(43.889 28.958) rotate(90)"/>
            <path id="Path_50" data-name="Path 50" d="M2.635,2.733c7.025,10.354,9.153,11.515,16.368,0S17.222,19.8,10.679,20.14-4.39-7.622,2.635,2.733Z" transform="translate(75.889 29) rotate(90)"/>
          </g>
        </g>
        <g id="Group_104" data-name="Group 104">
          <path id="Path_46" data-name="Path 46" d="M7.3,0s8.83,16.212,7.064,21.616S2,27.02.234,21.616,7.3,0,7.3,0Z" transform="matrix(0.914, 0.407, -0.407, 0.914, 12.36, 63.435)"/>
          <path id="Path_51" data-name="Path 51" d="M7.3,0s8.83,16.212,7.064,21.616S2,27.02.234,21.616,7.3,0,7.3,0Z" transform="translate(74.899 44.003) rotate(-95)"/>
        </g>
      </g>
    </g>
  </g>
</svg>
