<svg xmlns="http://www.w3.org/2000/svg" xmlns:xlink="http://www.w3.org/1999/xlink" width="100" height="100" viewBox="0 0 100 100">
  <defs>
    <clipPath id="clip-Sleeping-Face">
      <rect width="100" height="100"/>
    </clipPath>
  </defs>
  <g id="Sleeping-Face" clip-path="url(#clip-Sleeping-Face)">
    <g id="Group_175" data-name="Group 175">
      <path id="Path_4" data-name="Path 4" d="M50,7.5A42.5,42.5,0,1,0,92.5,50,42.548,42.548,0,0,0,50,7.5M50,0A50,50,0,1,1,0,50,50,50,0,0,1,50,0Z"/>
      <g id="Group_174" data-name="Group 174" transform="translate(1)">
        <g id="Group_173" data-name="Group 173">
          <text id="z" transform="translate(63 34)" font-size="33" font-family="SegoeUI, Segoe UI"><tspan x="0" y="0">z</tspan></text>
          <path id="z_-_Outline" data-name="z - Outline" d="M.85-17.1H14.78v1.552L5.59-2.856h9.093V.6H-.068V-1.017L9.118-13.644H.85Zm12.7,1.2H2.05v1.056h9.425L1.132-.627V-.6H13.483V-1.656H3.24Z" transform="translate(63 34)"/>
          <text id="z-2" data-name="z" transform="translate(52 23)" font-size="21" font-family="SegoeUI, Segoe UI"><tspan x="0" y="0">z</tspan></text>
          <path id="z_-_Outline-2" data-name="z - Outline" d="M.323-11.1h9.3v1.276L3.985-2.036H9.562V.6H-.262V-.718L5.374-8.464H.323ZM8.2-9.9H1.523v.236H7.731L1.136-.6H8.362V-.836H1.634Z" transform="translate(52 23)"/>
          <text id="z-3" data-name="z" transform="translate(43 26)" font-size="11" font-family="SegoeUI, Segoe UI"><tspan x="0" y="0">z</tspan></text>
          <path id="z_-_Outline-3" data-name="z - Outline" d="M-.117-6.1H5.327v1.047l-2.68,3.7H5.294V.6H-.423V-.469L2.254-4.148H-.117Z" transform="translate(43 26)"/>
        </g>
        <g id="Group_13" data-name="Group 13" transform="translate(20 45)">
          <ellipse id="Ellipse_1" data-name="Ellipse 1" cx="8.314" cy="8.434" rx="8.314" ry="8.434" transform="translate(19.541 19.766)"/>
          <g id="Group_11" data-name="Group 11">
            <path id="Path_14" data-name="Path 14" d="M1.066,47.466c6.942,3.458,15.089,2.454,21.623,0s-2.352,8.532-11,8.7S-5.875,44.008,1.066,47.466Z" transform="translate(36.764 -46.854)"/>
            <path id="Path_18" data-name="Path 18" d="M1.066,47.466c6.942,3.458,15.089,2.454,21.623,0s-2.352,8.532-11,8.7S-5.875,44.008,1.066,47.466Z" transform="translate(-1.583 -46.854)"/>
          </g>
        </g>
      </g>
    </g>
  </g>
</svg>
