<svg xmlns="http://www.w3.org/2000/svg" xmlns:xlink="http://www.w3.org/1999/xlink" width="100" height="100" viewBox="0 0 100 100">
  <defs>
    <clipPath id="clip-Smiling-Face-with-Hearts">
      <rect width="100" height="100"/>
    </clipPath>
  </defs>
  <g id="Smiling-Face-with-Hearts" clip-path="url(#clip-Smiling-Face-with-Hearts)">
    <g id="Group_123" data-name="Group 123">
      <path id="Path_4" data-name="Path 4" d="M50,7.5A42.5,42.5,0,1,0,92.5,50,42.548,42.548,0,0,0,50,7.5M50,0A50,50,0,1,1,0,50,50,50,0,0,1,50,0Z"/>
      <g id="Group_122" data-name="Group 122">
        <g id="Group_117" data-name="Group 117">
          <g id="Group_116" data-name="Group 116" transform="translate(-0.349)">
            <path id="Path_15" data-name="Path 15" d="M18.517,15.292a2.52,2.52,0,0,1-.355-.025A24.75,24.75,0,0,1,.3,3.69,2.5,2.5,0,0,1,4.7,1.307a19.717,19.717,0,0,0,14.169,9.01,2.5,2.5,0,0,1-.349,4.975Z" transform="translate(84.061 36.506) rotate(162)"/>
            <path id="Path_15-2" data-name="Path 15" d="M18.517,0a2.52,2.52,0,0,0-.355.025A24.75,24.75,0,0,0,.3,11.6a2.5,2.5,0,0,0,4.4,2.383,19.716,19.716,0,0,1,14.169-9.01A2.5,2.5,0,0,0,18.517,0Z" transform="matrix(0.951, 0.309, -0.309, 0.951, 22.075, 21.962)"/>
          </g>
          <g id="Group_115" data-name="Group 115" transform="translate(-1.193)">
            <path id="Path_18" data-name="Path 18" d="M18.544,53.772c-5.693-.927-10.583-.645-18.08,0s2.122-5.958,9.18-6.129S24.237,54.7,18.544,53.772Z" transform="translate(59.301 -2.854)"/>
            <path id="Path_53" data-name="Path 53" d="M18.544,53.772c-5.693-.927-10.583-.645-18.08,0s2.122-5.958,9.18-6.129S24.237,54.7,18.544,53.772Z" transform="translate(25.452 -2.854)"/>
          </g>
        </g>
        <path id="Path_29" data-name="Path 29" d="M1.706,47.669c8.729,4.606,18.973,3.268,27.19,0S25.938,59.034,15.069,59.261-7.023,43.063,1.706,47.669Z" transform="translate(35.417 22.235)"/>
      </g>
      <g id="Group_121" data-name="Group 121">
        <path id="Path_54" data-name="Path 54" d="M14.855,26.725C6.868,21.389,2.679,16.535.96,12.472-3.642,1.584,9.5-3.623,14.855,2.8c5.351-6.427,18.5-1.22,13.895,9.668C27.032,16.535,22.843,21.389,14.855,26.725Z" transform="translate(70.289 71.045)"/>
        <path id="Path_55" data-name="Path 55" d="M14.637,26.332c-7.87-5.258-12-10.041-13.69-14.044C-3.588,1.56,9.364-3.57,14.637,2.763c5.272-6.333,18.225-1.2,13.69,9.525C26.634,16.291,22.507,21.074,14.637,26.332Z" transform="translate(0.032 59.277)"/>
        <path id="Path_56" data-name="Path 56" d="M14.427,25.955C6.67,20.773,2.6,16.058.933,12.112-3.537,1.538,9.23-3.519,14.427,2.723c5.2-6.242,17.964-1.185,13.494,9.389C26.253,16.058,22.185,20.773,14.427,25.955Z" transform="translate(71.146 0)"/>
      </g>
    </g>
  </g>
</svg>
