<svg xmlns="http://www.w3.org/2000/svg" xmlns:xlink="http://www.w3.org/1999/xlink" width="100" height="100" viewBox="0 0 100 100">
  <defs>
    <clipPath id="clip-Smiling-Face">
      <rect width="100" height="100"/>
    </clipPath>
  </defs>
  <g id="Smiling-Face" clip-path="url(#clip-Smiling-Face)">
    <g id="Group_129" data-name="Group 129">
      <path id="Path_4" data-name="Path 4" d="M50,7.5A42.5,42.5,0,1,0,92.5,50,42.548,42.548,0,0,0,50,7.5M50,0A50,50,0,1,1,0,50,50,50,0,0,1,50,0Z"/>
      <g id="Group_128" data-name="Group 128">
        <g id="Group_127" data-name="Group 127" transform="translate(0)">
          <path id="Path_15" data-name="Path 15" d="M18.517,15.292a2.52,2.52,0,0,1-.355-.025A24.75,24.75,0,0,1,.3,3.69,2.5,2.5,0,0,1,4.7,1.307a19.717,19.717,0,0,0,14.169,9.01,2.5,2.5,0,0,1-.349,4.975Z" transform="translate(86.711 41.544) rotate(162)"/>
          <path id="Path_15-2" data-name="Path 15" d="M18.517,0a2.52,2.52,0,0,0-.355.025A24.75,24.75,0,0,0,.3,11.6a2.5,2.5,0,0,0,4.4,2.383,19.716,19.716,0,0,1,14.169-9.01A2.5,2.5,0,0,0,18.517,0Z" transform="matrix(0.951, 0.309, -0.309, 0.951, 18.726, 27)"/>
        </g>
        <g id="Group_115" data-name="Group 115" transform="translate(-1.193 3)">
          <path id="Path_18" data-name="Path 18" d="M18.544,53.772c-5.693-.927-10.583-.645-18.08,0s2.122-5.958,9.18-6.129S24.237,54.7,18.544,53.772Z" transform="translate(59.301 -2.854)"/>
          <path id="Path_53" data-name="Path 53" d="M18.544,53.772c-5.693-.927-10.583-.645-18.08,0s2.122-5.958,9.18-6.129S24.237,54.7,18.544,53.772Z" transform="translate(25.452 -2.854)"/>
        </g>
      </g>
      <path id="Path_29" data-name="Path 29" d="M1.706,47.669c8.729,4.606,18.973,3.268,27.19,0S25.938,59.034,15.069,59.261-7.023,43.063,1.706,47.669Z" transform="translate(34.417 24.235)"/>
    </g>
  </g>
</svg>
