<svg xmlns="http://www.w3.org/2000/svg" xmlns:xlink="http://www.w3.org/1999/xlink" width="100" height="100" viewBox="0 0 100 100">
  <defs>
    <clipPath id="clip-Star-Struck">
      <rect width="100" height="100"/>
    </clipPath>
  </defs>
  <g id="Star-Struck" clip-path="url(#clip-Star-Struck)">
    <g id="Group_266" data-name="Group 266">
      <g id="Group_265" data-name="Group 265">
        <g id="Group_263" data-name="Group 263">
          <path id="Path_4" data-name="Path 4" d="M50,7.5A42.5,42.5,0,1,0,92.5,50,42.548,42.548,0,0,0,50,7.5M50,0A50,50,0,1,1,0,50,50,50,0,0,1,50,0Z"/>
          <g id="Group_93" data-name="Group 93">
            <g id="Group_20" data-name="Group 20" transform="translate(17 54.637)">
              <path id="Path_22" data-name="Path 22" d="M2.872,46.52A10.956,10.956,0,0,1,8.01,48.134c5.562,3.05,13.245,4.662,22.218,4.662,11.126,0,21.882-2.469,27.167-4.763a6.662,6.662,0,0,1,2.633-.607c2.081,0,4.52,1.4,4.546,5.342.031,4.765-3.345,11.591-8.4,16.987a33.372,33.372,0,0,1-23.979,10.9l-.384,0c-8.636,0-17.27-3.948-24.311-11.117C1.9,63.836-2.017,56.582-2.018,51.9-2.018,48.633-.1,46.52,2.872,46.52ZM30.228,57.8c-9.811,0-18.325-1.825-24.622-5.277A7.092,7.092,0,0,0,3,51.526c-.136.923.3,3.8,3.043,8.179,4.651,7.425,14.293,16.109,26.086,15.951,14.425-.19,22.276-11.118,24.339-14.462,2.662-4.316,3.187-7.432,3.105-8.648-.056.021-.118.046-.185.075C53.45,55.2,42.132,57.8,30.228,57.8Z" transform="translate(2.018 -46.52)"/>
            </g>
          </g>
        </g>
        <g id="Group_264" data-name="Group 264" transform="translate(0.47 7.362)">
          <path id="Polygon_1" data-name="Polygon 1" d="M25.174,0,31.09,15.345l19.258-.031-15.6,9.453,5.986,15.326-15.559-9.5-15.559,9.5L15.6,24.767,0,15.314l19.258.031Z" transform="matrix(0.978, -0.208, 0.208, 0.978, -2.47, 9.487)"/>
          <path id="Polygon_2" data-name="Polygon 2" d="M25.174,0,31.09,15.345l19.258-.031-15.6,9.453,5.986,15.326-15.559-9.5-15.559,9.5L15.6,24.767,0,15.314l19.258.031Z" transform="matrix(0.978, 0.208, -0.208, 0.978, 53.262, -0.981)"/>
        </g>
      </g>
    </g>
  </g>
</svg>
