<svg xmlns="http://www.w3.org/2000/svg" xmlns:xlink="http://www.w3.org/1999/xlink" width="100" height="100" viewBox="0 0 100 100">
  <defs>
    <clipPath id="clip-Unamused-Face">
      <rect width="100" height="100"/>
    </clipPath>
  </defs>
  <g id="Unamused-Face" clip-path="url(#clip-Unamused-Face)">
    <g id="Group_141" data-name="Group 141">
      <path id="Path_4" data-name="Path 4" d="M50,7.5A42.5,42.5,0,1,0,92.5,50,42.548,42.548,0,0,0,50,7.5M50,0A50,50,0,1,1,0,50,50,50,0,0,1,50,0Z"/>
      <path id="Path_21" data-name="Path 21" d="M1.734,58.554c8.809-4.648,19.147-3.3,27.439,0s-2.985-11.469-13.953-11.7S-7.075,63.2,1.734,58.554Z" transform="translate(36.864 22.446)"/>
      <g id="Group_51" data-name="Group 51" transform="translate(21.17 49.817)">
        <g id="Group_50" data-name="Group 50" transform="translate(41.918)">
          <g id="Group_46" data-name="Group 46">
            <path id="Path_34" data-name="Path 34" d="M292.638,17.411a2.329,2.329,0,0,1-1.362-4.22c.274-.2,6.833-4.811,16.819-3.063a2.329,2.329,0,1,1-.8,4.588c-8.077-1.413-13.245,2.22-13.3,2.257A2.319,2.319,0,0,1,292.638,17.411Z" transform="translate(-290.307 -9.733)"/>
            <circle id="Ellipse_6" data-name="Ellipse 6" cx="5.661" cy="5.661" r="5.661" transform="translate(10.536 0.17)"/>
          </g>
        </g>
        <g id="Group_49" data-name="Group 49" transform="translate(-5 0.183)">
          <g id="Group_47" data-name="Group 47">
            <path id="Path_34-2" data-name="Path 34" d="M292.638,17.411a2.329,2.329,0,0,1-1.362-4.22c.274-.2,6.833-4.811,16.819-3.063a2.329,2.329,0,1,1-.8,4.588c-8.077-1.413-13.245,2.22-13.3,2.257A2.319,2.319,0,0,1,292.638,17.411Z" transform="translate(-290.307 -9.733)"/>
            <circle id="Ellipse_6-2" data-name="Ellipse 6" cx="5.661" cy="5.661" r="5.661" transform="translate(10.536 0.17)"/>
          </g>
        </g>
      </g>
      <g id="Group_52" data-name="Group 52" transform="translate(8.892 29.232)">
        <path id="Path_38" data-name="Path 38" d="M.263,6.444C.825,6.28,6.369.2,15.563.014c2.394-.159,6.216.979,9.781,4.569a15.6,15.6,0,0,1,3.4,4.54s-.365,1.024-2.478,2.321c-2.475-3.668-5-5.943-9.094-7.152C9.859,1.914.913,9.975.913,9.975S-.592,6.694.263,6.444Z" transform="matrix(0.951, -0.309, 0.309, 0.951, 0, 8.884)"/>
        <path id="Path_41" data-name="Path 41" d="M.263,5c.563.164,6.106,6.246,15.3,6.43,2.394.159,6.216-.979,9.781-4.569a15.6,15.6,0,0,0,3.4-4.54S28.383,1.3,26.27,0c-2.475,3.668-5,5.943-9.094,7.152C9.859,9.53.913,1.469.913,1.469S-.592,4.75.263,5Z" transform="matrix(-0.951, -0.309, 0.309, -0.951, 78.68, 19.768)"/>
      </g>
    </g>
  </g>
</svg>
