<svg xmlns="http://www.w3.org/2000/svg" xmlns:xlink="http://www.w3.org/1999/xlink" width="100" height="100" viewBox="0 0 100 100">
  <defs>
    <clipPath id="clip-Upside-Down-Face">
      <rect width="100" height="100"/>
    </clipPath>
  </defs>
  <g id="Upside-Down-Face" clip-path="url(#clip-Upside-Down-Face)">
    <g id="Group_88" data-name="Group 88">
      <g id="Group_91" data-name="Group 91" transform="translate(0)">
        <path id="Path_4" data-name="Path 4" d="M50,92.5A42.5,42.5,0,1,1,92.5,50,42.548,42.548,0,0,1,50,92.5m0,7.5A50,50,0,1,0,0,50,50,50,0,0,0,50,100Z"/>
        <g id="Group_90" data-name="Group 90" transform="translate(28 22.829)">
          <g id="Group_89" data-name="Group 89" transform="translate(0.683 30.166)">
            <g id="Group_36" data-name="Group 36" transform="translate(0 0)">
              <ellipse id="Ellipse_4" data-name="Ellipse 4" cx="6.154" cy="6.502" rx="6.154" ry="6.502" transform="translate(0)"/>
              <ellipse id="Ellipse_5" data-name="Ellipse 5" cx="6.154" cy="6.502" rx="6.154" ry="6.502" transform="translate(31.327)"/>
            </g>
          </g>
          <path id="Path_48" data-name="Path 48" d="M27.293,82.671a2.5,2.5,0,0,1-1.728-4.307A44.241,44.241,0,0,1,39.472,69a27,27,0,0,1,21.4.238,32.981,32.981,0,0,1,6.671,3.93,32.656,32.656,0,0,1,5.752,5.474L69.335,81.7l0,0A28.353,28.353,0,0,0,64.4,77.06,24.417,24.417,0,0,0,51.51,71.967C44.1,71.425,36.538,74.793,29.02,81.978A2.492,2.492,0,0,1,27.293,82.671Z" transform="translate(-27.293 -69.41)"/>
        </g>
      </g>
    </g>
  </g>
</svg>
