<svg xmlns="http://www.w3.org/2000/svg" xmlns:xlink="http://www.w3.org/1999/xlink" width="100" height="100" viewBox="0 0 100 100">
  <defs>
    <clipPath id="clip-Weary-Face">
      <rect width="100" height="100"/>
    </clipPath>
  </defs>
  <g id="Weary-Face" clip-path="url(#clip-Weary-Face)">
    <path id="Path_39" data-name="Path 39" transform="translate(32 38)" fill="#707070"/>
    <g id="Group_238" data-name="Group 238">
      <path id="Path_4" data-name="Path 4" d="M50,7.5A42.5,42.5,0,1,0,92.5,50,42.548,42.548,0,0,0,50,7.5M50,0A50,50,0,1,1,0,50,50,50,0,0,1,50,0Z"/>
      <g id="Group_237" data-name="Group 237" transform="translate(0)">
        <path id="Path_18" data-name="Path 18" d="M1.066,47.466c6.942,3.458,15.089,2.454,21.623,0s-2.352,8.532-11,8.7S-5.875,44.008,1.066,47.466Z" transform="matrix(0.921, -0.391, 0.391, 0.921, 1.997, -3.162)"/>
        <path id="Path_20" data-name="Path 20" d="M18.7,15.407a2.522,2.522,0,0,1-.355-.025A25,25,0,0,1,.3,3.69,2.5,2.5,0,0,1,4.694,1.3h0a19.955,19.955,0,0,0,14.35,9.131,2.5,2.5,0,0,1-.349,4.975Z" transform="translate(21.066 28.412) rotate(-71)"/>
        <path id="Path_18-2" data-name="Path 18" d="M2.484,8.7c6.942-3.458,15.089-2.454,21.623,0S21.754.172,13.111,0-4.458,12.162,2.484,8.7Z" transform="matrix(-0.921, -0.391, 0.391, -0.921, 77.039, 49.096)"/>
        <path id="Path_20-2" data-name="Path 20" d="M18.7,0a2.522,2.522,0,0,0-.355.025A25,25,0,0,0,.3,11.717a2.5,2.5,0,0,0,4.392,2.389h0a19.955,19.955,0,0,1,14.35-9.131A2.5,2.5,0,0,0,18.7,0Z" transform="translate(64.046 33.428) rotate(-109)"/>
        <path id="Exclusion_3" data-name="Exclusion 3" d="M-961.436-612.491h0a11.414,11.414,0,0,1-2.8-.418,92.135,92.135,0,0,0-23.172-2.952,106.285,106.285,0,0,0-24.312,2.952,9.273,9.273,0,0,1-2.093.275,2.875,2.875,0,0,1-2.863-1.458c-.559-1.149-.391-2.931.485-5.155a29.377,29.377,0,0,1,4.25-7.071,42.631,42.631,0,0,1,10.278-9.407,29.842,29.842,0,0,1,6.305-3.1A20.45,20.45,0,0,1-988.722-640c.12,0,.242,0,.362,0a24.788,24.788,0,0,1,10.726,3.029,45.051,45.051,0,0,1,9.689,6.89c5.728,5.279,9.7,11.391,9.666,14.863C-958.3-613.433-959.389-612.491-961.436-612.491Zm-27.577-24.033c-5,0-10.307,3.619-12.356,5.175-2.746,2.087-4.8,4.328-4.572,5,.04.119.155.179.343.179a5.379,5.379,0,0,0,2.015-.753c3.676-1.939,8.992-3.008,14.969-3.008A39.342,39.342,0,0,1-974.8-627.7a5.4,5.4,0,0,0,1.763.468c.344,0,.519-.122.522-.362.008-.788-2.02-2.939-5.312-5.042-2.212-1.413-6.58-3.8-10.982-3.889Z" transform="translate(1038.002 693.729)"/>
      </g>
    </g>
  </g>
</svg>
