<svg xmlns="http://www.w3.org/2000/svg" xmlns:xlink="http://www.w3.org/1999/xlink" width="100" height="100" viewBox="0 0 100 100">
  <defs>
    <clipPath id="clip-Winking-Face">
      <rect width="100" height="100"/>
    </clipPath>
  </defs>
  <g id="Winking-Face" clip-path="url(#clip-Winking-Face)">
    <g id="Group_114" data-name="Group 114">
      <path id="Path_4" data-name="Path 4" d="M50,7.5A42.5,42.5,0,1,0,92.5,50,42.548,42.548,0,0,0,50,7.5M50,0A50,50,0,1,1,0,50,50,50,0,0,1,50,0Z"/>
      <g id="Group_113" data-name="Group 113">
        <g id="Group_112" data-name="Group 112">
          <path id="Path_5" data-name="Path 5" d="M2.5,15.292A2.5,2.5,0,0,1,.3,11.6,24.75,24.75,0,0,1,18.162.025a2.5,2.5,0,0,1,.7,4.95A19.815,19.815,0,0,0,4.7,13.981,2.5,2.5,0,0,1,2.5,15.292Z" transform="matrix(0.995, -0.105, 0.105, 0.995, 14.338, 26.224)"/>
          <path id="Path_15" data-name="Path 15" d="M18.517,15.292a2.52,2.52,0,0,1-.355-.025A24.75,24.75,0,0,1,.3,3.69,2.5,2.5,0,0,1,4.7,1.307a19.717,19.717,0,0,0,14.169,9.01,2.5,2.5,0,0,1-.349,4.975Z" transform="translate(84.061 46.123) rotate(162)"/>
          <g id="Group_73" data-name="Group 73" transform="translate(30 43.542)">
            <path id="Path_18" data-name="Path 18" d="M18.084,55.558C12.415,52.1,5.762,53.1.426,55.558s1.921-8.532,8.979-8.7S23.753,59.016,18.084,55.558Z" transform="translate(29.301 -41.712)"/>
            <ellipse id="Ellipse_5" data-name="Ellipse 5" cx="5.638" cy="8.458" rx="5.638" ry="8.458"/>
          </g>
        </g>
        <path id="Path_29" data-name="Path 29" d="M1.706,47.669c8.729,4.606,18.973,3.268,27.19,0S25.938,59.034,15.069,59.261-7.023,43.063,1.706,47.669Z" transform="translate(37.457 25.235)"/>
      </g>
    </g>
  </g>
</svg>
