<svg xmlns="http://www.w3.org/2000/svg" xmlns:xlink="http://www.w3.org/1999/xlink" width="100" height="100" viewBox="0 0 100 100">
  <defs>
    <clipPath id="clip-Winking-Face-with-Tongue">
      <rect width="100" height="100"/>
    </clipPath>
  </defs>
  <g id="Winking-Face-with-Tongue" clip-path="url(#clip-Winking-Face-with-Tongue)">
    <g id="Group_256" data-name="Group 256">
      <path id="Path_4" data-name="Path 4" d="M50,7.5A42.5,42.5,0,1,0,92.5,50,42.548,42.548,0,0,0,50,7.5M50,0A50,50,0,1,1,0,50,50,50,0,0,1,50,0Z"/>
      <g id="Group_255" data-name="Group 255">
        <g id="Group_254" data-name="Group 254" transform="translate(-0.865)">
          <g id="Group_95" data-name="Group 95" transform="translate(0.296 -1)">
            <path id="Path_32" data-name="Path 32" d="M5.225,24.353c5.794-5.157,19.7-7.419,25.635-7.243,7.414-.69,26.522,2.57,30.74,6.259C69.131,29.956,55.872.781,32.9.013S-7.944,36.073,5.225,24.353Z" transform="matrix(-1, -0.017, 0.017, -1, 82.276, 86.221)"/>
          </g>
          <path id="Subtraction_1" data-name="Subtraction 1" d="M-352.229-167.326a14.006,14.006,0,0,1-6.359-1.551l-6.4-3.283c-.665-.341-1.317-.665-1.948-.978-3.546-1.761-6.347-3.152-7.036-5.357a5.051,5.051,0,0,1,.73-3.975l4.876-6.071c4.246,2.508,9.9,5.76,12.707,7.006a11.966,11.966,0,0,0,3.664,1.2c.226,0,.359-.057.394-.168.124-.392-.949-1.425-2.945-2.834-2.449-1.729-8.019-4.841-12.26-7.147l3.053-3.8c1.362-2.47,2.529-3.478,4.028-3.478,1.4,0,3.1.895,5.453,2.133l.01.005c.543.286,1.1.581,1.714.894l6.4,3.282a12.918,12.918,0,0,1,6.532,7.57,10.3,10.3,0,0,1-.775,8.049l-1.555,2.822a10.637,10.637,0,0,1-4.291,4.207A12.632,12.632,0,0,1-352.229-167.326Z" transform="translate(69.923 486.676) rotate(60)"/>
        </g>
        <g id="Group_253" data-name="Group 253" transform="translate(-2.884)">
          <g id="Group_252" data-name="Group 252" transform="translate(0 4)">
            <circle id="Ellipse_13" data-name="Ellipse 13" cx="5" cy="5" r="5" transform="translate(66 33)"/>
            <path id="Path_63" data-name="Path 63" d="M14.614,3A11.614,11.614,0,0,0,6.4,22.827,11.614,11.614,0,0,0,22.827,6.4,11.538,11.538,0,0,0,14.614,3m0-3A14.614,14.614,0,1,1,0,14.614,14.614,14.614,0,0,1,14.614,0Z" transform="translate(56 23)"/>
          </g>
          <path id="Path_18" data-name="Path 18" d="M18.084,55.558C12.415,52.1,5.762,53.1.426,55.558s1.921-8.532,8.979-8.7S23.753,59.016,18.084,55.558Z" transform="translate(22.301 -8.512)"/>
        </g>
      </g>
    </g>
  </g>
</svg>
