<svg xmlns="http://www.w3.org/2000/svg" xmlns:xlink="http://www.w3.org/1999/xlink" width="100" height="100" viewBox="0 0 100 100">
  <defs>
    <clipPath id="clip-Zany-Face-with-Tongue">
      <rect width="100" height="100"/>
    </clipPath>
  </defs>
  <g id="Zany-Face-with-Tongue" clip-path="url(#clip-Zany-Face-with-Tongue)">
    <g id="Group_261" data-name="Group 261">
      <g id="Group_260" data-name="Group 260" transform="translate(-4 -3.239)">
        <g id="Group_252" data-name="Group 252" transform="translate(50.314 18)">
          <ellipse id="Ellipse_13" data-name="Ellipse 13" cx="5.5" cy="6" rx="5.5" ry="6" transform="translate(7.686 6.239)"/>
          <path id="Path_63" data-name="Path 63" d="M16.292,3a13.292,13.292,0,0,0-9.4,22.691,13.292,13.292,0,1,0,18.8-18.8A13.2,13.2,0,0,0,16.292,3m0-3A16.292,16.292,0,1,1,0,16.292,16.292,16.292,0,0,1,16.292,0Z"/>
        </g>
        <g id="Group_258" data-name="Group 258" transform="matrix(0.788, -0.616, 0.616, 0.788, 15.129, 46.677)">
          <circle id="Ellipse_13-2" data-name="Ellipse 13" cx="4.386" cy="4.386" r="4.386" transform="translate(6.141 11.605)"/>
          <path id="Path_63-2" data-name="Path 63" d="M12.82,22.64A9.82,9.82,0,1,0,3,12.82a9.831,9.831,0,0,0,9.82,9.82m0,3A12.82,12.82,0,1,1,25.64,12.82,12.82,12.82,0,0,1,12.82,25.64Z"/>
        </g>
      </g>
      <g id="Group_259" data-name="Group 259">
        <g id="Group_100" data-name="Group 100">
          <path id="Path_4" data-name="Path 4" d="M50,7.5A42.5,42.5,0,1,0,92.5,50,42.548,42.548,0,0,0,50,7.5M50,0A50,50,0,1,1,0,50,50,50,0,0,1,50,0Z"/>
          <g id="Group_99" data-name="Group 99">
            <g id="Group_98" data-name="Group 98" transform="translate(-14.325 17.185) rotate(-19)">
              <g id="Group_20" data-name="Group 20" transform="translate(16.704 54.637)">
                <path id="Path_22" data-name="Path 22" d="M2.872,46.52A10.956,10.956,0,0,1,8.01,48.134c5.562,3.05,13.245,4.662,22.218,4.662,11.126,0,21.882-2.469,27.167-4.763a6.662,6.662,0,0,1,2.633-.607c2.081,0,4.52,1.4,4.546,5.342.031,4.765-3.345,11.591-8.4,16.987a33.372,33.372,0,0,1-23.979,10.9l-.384,0c-8.636,0-17.27-3.948-24.311-11.117C1.9,63.836-2.017,56.582-2.018,51.9-2.018,48.633-.1,46.52,2.872,46.52ZM30.228,57.8c-9.811,0-18.325-1.825-24.622-5.277A7.092,7.092,0,0,0,3,51.526c-.136.923.3,3.8,3.043,8.179,4.651,7.425,14.293,16.109,26.086,15.951,14.425-.19,22.276-11.118,24.339-14.462,2.662-4.316,3.187-7.432,3.105-8.648-.056.021-.118.046-.185.075C53.45,55.2,42.132,57.8,30.228,57.8Z" transform="translate(2.018 -46.52)"/>
              </g>
              <path id="Path_32" data-name="Path 32" d="M4.36,22.074c13.169-11.721,48.833-7.571,56.365-.984S55.872.781,32.9.013-8.808,33.8,4.36,22.074Z" transform="matrix(-1, -0.017, 0.017, -1, 82.276, 86.221)"/>
            </g>
          </g>
        </g>
        <path id="Subtraction_2" data-name="Subtraction 2" d="M-353.264-171.994a17.694,17.694,0,0,1-7.6-1.764l-6.866-3.293c-.712-.342-1.41-.667-2.084-.982-3.962-1.848-7.088-3.307-7.744-5.471a3.939,3.939,0,0,1,.663-3.238l3.59-3.868a77.373,77.373,0,0,0,10.755,5.146,11.282,11.282,0,0,0,3.067.59c.712,0,1.149-.181,1.266-.523.213-.625-.655-1.746-2.38-3.073a65.921,65.921,0,0,0-9.708-5.374l2.742-2.954c1.235-2.031,2.381-2.9,3.832-2.9,1.507,0,3.3.882,6.025,2.218.587.288,1.191.585,1.849.9l6.865,3.294a16.068,16.068,0,0,1,4.9,3.551,11.58,11.58,0,0,1,2.642,4.482,7.6,7.6,0,0,1-.716,6.273l-1.484,2.441C-345.381-173.692-348.975-171.994-353.264-171.994Z" transform="translate(135.213 482.995) rotate(50)"/>
      </g>
    </g>
  </g>
</svg>
